<svg width="60" height="60" xmlns="http://www.w3.org/2000/svg">
 <title/>
 <desc/>

 <g>
  <title>background</title>
  <rect fill="none" id="canvas_background" height="402" width="582" y="-1" x="-1"/>
 </g>
 <g>
  <title>Layer 1</title>
  <polygon fill="#000000" points="30,0 55.98077392578125,15 55.98077392578125,45 30,60 4.01922607421875,45 4.01922607421875,15 " id="Polygon-48"/>
  <path stroke="null" style="vector-effect: non-scaling-stroke;" fill="#ffffff" id="whatsapp" d="m46.801661,37.260929c-0.210904,-0.349213 -0.770717,-0.560171 -1.608867,-0.979713c-0.840493,-0.419542 -4.970043,-2.451655 -5.738431,-2.730553c-0.770717,-0.279704 -1.331282,-0.42111 -1.890314,0.419528c-0.559032,0.840652 -2.16868,2.730568 -2.659497,3.290738c-0.490008,0.560962 -0.979278,0.631276 -1.818976,0.210957c-0.838945,-0.419542 -3.54495,-1.306303 -6.753371,-4.16654c-2.495882,-2.225078 -4.181495,-4.972056 -4.670765,-5.813498c-0.490008,-0.839861 -0.051945,-1.29379 0.368315,-1.711764c0.377586,-0.376568 0.839698,-0.980504 1.259958,-1.47036c0.420232,-0.490647 0.559798,-0.839875 0.838917,-1.400837c0.28068,-0.560156 0.140333,-1.050027 -0.069776,-1.471151c-0.210123,-0.419528 -1.890314,-4.550932 -2.589693,-6.232221c-0.699365,-1.679764 -1.397977,-1.400046 -1.888766,-1.400046c-0.490037,0 -1.049835,-0.070314 -1.609662,-0.070314c-0.559798,0 -1.470067,0.210152 -2.240017,1.050013c-0.769141,0.84068 -2.93782,2.871973 -2.93782,7.002601c0,4.131376 3.007625,8.122914 3.428638,8.682322c0.419466,0.559394 5.807441,9.312807 14.34336,12.674637c8.539014,3.361053 8.539014,2.239906 10.078871,2.100068c1.537529,-0.139838 4.966167,-2.030531 5.667874,-3.990761c0.698584,-1.961784 0.698584,-3.643087 0.490022,-3.993106l0,0z"/>
 </g>
</svg>