<?xml version="1.0" ?><svg height="60px" version="1.1" viewBox="0 0 60 60" width="60px" xmlns="http://www.w3.org/2000/svg" xmlns:xlink="http://www.w3.org/1999/xlink"><title/><desc/><defs/><g fill="none" fill-rule="evenodd" id="Page-1" stroke="none" stroke-linejoin="round" stroke-width="1"><g id="Linkedin" stroke="#ffffff" stroke-width="2" transform="translate(1.000000, 1.000000)"><path d="M51,33.6902 L51,49.0002 L41.146,49.0002 L41.146,34.7492 C41.146,31.0202 39.606,28.4772 36.217,28.4772 C33.623,28.4772 32.179,30.1942 31.511,31.8462 C31.257,32.4442 31.298,33.2702 31.298,34.1002 L31.298,49.0002 L21.535,49.0002 C21.535,49.0002 21.662,23.7602 21.535,21.4652 L31.298,21.4652 L31.298,25.7872 C31.875,23.8972 34.996,21.2022 39.971,21.2022 C46.147,21.2022 51,25.1592 51,33.6902 L51,33.6902 Z" id="Stroke-18"/><polygon id="Stroke-19" points="7.543 49 16.231 49 16.231 21.466 7.543 21.466"/><path d="M16.7815,13.3799 C16.7815,15.7979 14.9335,17.7149 11.9735,17.7149 L11.9135,17.7149 C9.0595,17.7149 7.2115,15.8069 7.2115,13.3849 C7.2115,10.9159 9.1145,9.0499 12.0285,9.0499 C14.9335,9.0499 16.7215,10.9119 16.7815,13.3799 L16.7815,13.3799 Z" id="Stroke-20"/><path d="M54,58 L4,58 C1.791,58 0,56.209 0,54 L0,4 C0,1.791 1.791,0 4,0 L54,0 C56.209,0 58,1.791 58,4 L58,54 C58,56.209 56.209,58 54,58 L54,58 Z" id="Stroke-103"/></g></g></svg>