<svg xmlns="http://www.w3.org/2000/svg" width="87" height="87" viewBox="0 0 87 87"><defs><style>.a{fill:#fff;}</style></defs><path class="a" d="M18.278,86.977a9.139,9.139,0,1,1-9.139-9.139h9.139Zm4.606,0a9.139,9.139,0,0,1,18.278,0v22.884a9.139,9.139,0,1,1-18.278,0V86.977Zm9.139-36.7a9.139,9.139,0,1,1,9.139-9.139v9.139H32.023Zm0,4.606a9.139,9.139,0,1,1,0,18.278H9.139a9.139,9.139,0,0,1,0-18.278H32.023Zm36.7,9.139a9.139,9.139,0,1,1,9.139,9.139H68.722Zm-4.606,0a9.139,9.139,0,0,1-18.278,0V41.139a9.139,9.139,0,1,1,18.278,0Zm-9.139,36.7a9.139,9.139,0,1,1-9.139,9.139v-9.139Zm0-4.606a9.139,9.139,0,1,1,0-18.278H77.861a9.139,9.139,0,1,1,0,18.278Z" transform="translate(0 -32)"/></svg>