<?xml version="1.0" ?><svg height="60px" version="1.1" viewBox="0 0 60 60" width="60px" xmlns="http://www.w3.org/2000/svg" xmlns:xlink="http://www.w3.org/1999/xlink"><title/><desc/><defs/><g fill="none" fill-rule="evenodd" id="Page-1" stroke="none" stroke-linejoin="round" stroke-width="1"><g id="Twitter" stroke="#ffffff" stroke-width="2" transform="translate(1.000000, 1.000000)"><path d="M52.3819,9.121 C51.6239,11.555 50.0149,13.596 47.9169,14.88 C49.9689,14.633 51.9279,14.071 53.7479,13.246 C52.3919,15.334 50.6699,17.164 48.6849,18.634 C48.7009,19.077 48.7109,19.531 48.7109,19.984 C48.7109,33.746 38.4969,49.61 19.8169,49.61 C14.0839,49.61 8.7479,47.883 4.2519,44.934 C5.0459,45.027 5.8549,45.078 6.6749,45.078 C11.4289,45.078 15.8109,43.413 19.2859,40.618 C14.8419,40.536 11.0939,37.525 9.7999,33.39 C10.4179,33.513 11.0579,33.575 11.7119,33.575 C12.6399,33.575 13.5379,33.452 14.3879,33.209 C9.7379,32.255 6.2369,28.043 6.2369,22.995 L6.2369,22.872 C7.6079,23.645 9.1809,24.119 10.8409,24.166 C8.1139,22.299 6.3249,19.113 6.3249,15.504 C6.3249,13.596 6.8249,11.802 7.6959,10.26 C12.7069,16.566 20.1889,20.711 28.6289,21.144 C28.4539,20.381 28.3659,19.587 28.3659,18.773 C28.3659,13.024 32.9129,8.363 38.5179,8.363 C41.4409,8.363 44.0809,9.621 45.9319,11.647 C48.2469,11.183 50.4179,10.317 52.3819,9.121 L52.3819,9.121 Z" id="Stroke-3"/><path d="M54,58 L4,58 C1.791,58 0,56.209 0,54 L0,4 C0,1.791 1.791,0 4,0 L54,0 C56.209,0 58,1.791 58,4 L58,54 C58,56.209 56.209,58 54,58 L54,58 Z" id="Stroke-100"/></g></g></svg>