<?xml version="1.0" encoding="utf-8"?>
<!-- Svg Vector Icons : http://www.onlinewebfonts.com/icon -->
<!DOCTYPE svg PUBLIC "-//W3C//DTD SVG 1.1//EN" "http://www.w3.org/Graphics/SVG/1.1/DTD/svg11.dtd">
<svg version="1.1" xmlns="http://www.w3.org/2000/svg" xmlns:xlink="http://www.w3.org/1999/xlink" x="0px" y="0px" viewBox="0 0 1000 1000" enable-background="new 0 0 1000 1000" xml:space="preserve">
<metadata> Svg Vector Icons : http://www.onlinewebfonts.com/icon </metadata>
<g><path fill="#4EA9A5" d="M500,10C229.4,10,10,229.4,10,500s219.4,490,490,490s490-219.4,490-490S770.6,10,500,10z M401.1,576.6c0,0-4.4,8.8-7.8,15.8c-3.6,7-12,9.7-17.7,9.7h-72.2c-12.8,0-12.2-9.7-9.1-16.1c3.2-6.4,4.7-9.4,4.7-9.4l57.4-114.8l-31.9-63.8c0,0-1.5-3.1-4.7-9.4c-3.1-6.4-3.7-16.1,9.1-16.1h72.2c5.7,0,14.1,2.7,17.7,9.7c3.4,7,7.8,15.8,7.8,15.8l31.9,63.8L401.1,576.6z M705.7,286.4c-3.2,6.4-4.7,9.4-4.7,9.4L573.4,551L650,704.2c0,0,1.5,3,4.7,9.4c3.2,6.4,3.7,16.1-9.1,16.1h-72.2c-5.7,0-14-2.7-17.6-9.7c-3.5-7-7.9-15.8-7.9-15.8L471.3,551l127.6-255.2c0,0,4.4-8.8,7.9-15.8c3.5-7,11.8-9.7,17.6-9.7h72.2C709.4,270.3,708.8,280,705.7,286.4z"/></g>
</svg>
