<?xml version="1.0" encoding="utf-8"?>
<!DOCTYPE svg PUBLIC "-//W3C//DTD SVG 1.1//EN" "http://www.w3.org/Graphics/SVG/1.1/DTD/svg11.dtd">
<svg version="1.1" xmlns="http://www.w3.org/2000/svg" xmlns:xlink="http://www.w3.org/1999/xlink" x="0px" y="0px" viewBox="0 0 1000 1000" enable-background="new 0 0 1000 1000" xml:space="preserve">
<g><path d="
M 500 10
a 490 490 0 0 0 0 980
a 490 490 0 0 0 0 -980
Z

M 340.6 622.9
h -88.6
c -5.3 0 -9.3 -2.4 -11.6 -6
c -2.3 -3.8 -2.5 -8.7 0 -13.6
l 94.1 -165.6
c 0.1 -0.2 0.1 -0.3 0 -0.5
l -59.9 -103.4
c -2.5 -4.9 -2.8 -9.8 -0.5 -13.6
c 2.3 -3.7 6.7 -5.5 12.1 -5.5
h 88.6
c 13.6 0 20.2 8.7 24.7 16.6
c 0 0 60.5 105.3 60.9 105.9
c -3.6 6.3 -95.6 168.7 -95.6 168.7
C 360.3 614 353.9 622.9 340.6 622.9
L 340.6 622.9
z

M 759.4 213
L 563.3 558.8
c -0.1 0.2 -0.1 0.4 0 0.6
L 688.2 787
c 2.5 4.9 2.5 9.9 0.2 13.7
c -2.3 3.6 -6.4 5.6 -11.8 5.6h -88.5
c -13.6 0 -20.4 -9 -24.7 -16.8
c 0 0 -125.5 -229.7 -125.8 -230.3
c 6.3 -11.1 197.1 -348.6 197.1 -348.6
c 4.7 -8.5 10.5 -16.8 23.7 -16.8
h 89.5c5.3 0 9.5 2 11.8 5.6
C 762 203.2 761.9 208.1 759.4 213
L 759.4 213
z"/></g>
</svg>
