<?xml version="1.0" encoding="utf-8"?>
<!-- Generator: Adobe Illustrator 23.0.1, SVG Export Plug-In . SVG Version: 6.00 Build 0)  -->
<svg version="1.1" id="Vrstva_1" xmlns="http://www.w3.org/2000/svg" xmlns:xlink="http://www.w3.org/1999/xlink" x="0px" y="0px"
	 viewBox="0 0 1035.9 482.4" style="enable-background:new 0 0 1035.9 482.4;" xml:space="preserve">
<style type="text/css">
	.st0{fill-rule:evenodd;clip-rule:evenodd;fill:#E1E1E1;}
</style>
<g>
	<g>
		<path class="st0" d="M517.7,316.9c-4.8,5.4-8.9,10.1-13,14.8c-1.9,2.2-3.8,4.3-5.8,6.5c-6.1,6.7-12.2,13.4-18.2,20.1
			c-6.8,7.6-13.6,15.2-20.4,22.9c-4.8,5.4-9.6,10.8-14.4,16.2c-7.2,8.2-14.5,16.4-21.7,24.6c-0.4,0.4-1,0.9-1.5,0.8
			c-3.9-0.3-7.7-0.6-11.5-1c-4.3-0.5-8.6-1-12.8-1.5c-6.7-0.7-13.4-1.4-20.1-2c-4.4-0.4-8.8-0.7-13.2-1.1c-4-0.3-8.1-0.6-12.1-1.1
			c-0.6-0.1-1.5-1.4-1.4-2.1c0.4-5.5,0.9-10.9,1.4-16.4c0.2-2.6,0.4-5.2,0.5-7.8c0.3-6,0.6-11.9,1-17.9c0.6-8.4,1.1-16.9,2.2-25.3
			c0.2-1.8,2.2-3.6,3.6-5.2c7.5-8.5,15.1-16.8,22.7-25.2c6.5-7.3,13-14.6,19.5-21.9c6.5-7.4,13.1-14.7,19.6-22.1
			c6.6-7.4,13.1-14.7,19.6-22.1c2.5-2.8,4.8-5.6,7.4-8.6c-24.3-26.9-48.6-53.9-73.5-81.5c24.4,1.7,48.1,3.5,72.2,5.2
			c2.3-22.7,4.5-45.3,6.9-68.5c21,23.1,41.6,45.6,62.4,68.5c3.1-3.3,6-6.4,8.9-9.6c2.2-2.4,4.1-5,6.3-7.4
			c5.9-6.6,11.9-13.1,17.9-19.8c6.5-7.3,13-14.6,19.5-21.9c6.7-7.5,13.4-15,20-22.5c6.4-7.2,12.7-14.3,19.1-21.5
			c0.3-0.4,0.7-0.7,1.6-1.5c-0.3,6.4-0.6,12.1-0.9,17.8c0,0.5-0.2,1.1-0.2,1.6c-0.2,6.3-0.2,12.5-0.5,18.8c-0.3,7.5-0.6,15-1,22.5
			c-0.1,2.9-0.4,5.9-0.7,9c24.1,1.7,47.7,3.4,71.9,5.1c-1.5,1.9-2.7,3.5-4,5c-6.1,6.8-12.3,13.5-18.4,20.3
			c-6.8,7.5-13.5,15.1-20.2,22.7c-6.7,7.5-13.4,15-20,22.5c-6.7,7.6-13.5,15.1-20.2,22.7c-3.4,3.8-6.7,7.8-10.2,11.8
			c3.9,4.3,7.7,8.5,11.6,12.8c19.5,21.5,39.1,42.9,58.6,64.4c0.9,1,1.5,2.7,1.4,4c-1.3,22-2.7,44.1-4.1,66.1
			c-0.1,1.9-0.3,3.8-0.5,6.1c-5.7-0.4-11.3-0.8-16.9-1.3c-16.5-1.3-32.9-2.7-49.4-3.9c-3.1-0.2-5.3-1.1-7.5-3.5
			c-19.5-21.8-39.2-43.5-58.8-65.3C519.2,319.2,518.6,318.1,517.7,316.9z"/>
		<path class="st0" d="M149.9,345.1c-8.4-0.5-16.1-1-23.7-1.4c-0.8-0.1-1.6,0-2.5,0c-8.8-0.3-17.6-0.6-26.4-0.9
			c-6.5-0.3-13-0.6-19.5-1c-1.3-0.1-2.6-0.3-4.1-0.5c-0.4,5.4-0.8,10.6-1.1,15.8c-0.7,9.4-1.3,18.9-2,28.3c-0.2,3.2-0.4,6.3-0.5,9.5
			c-0.2,4.2-0.4,8.3-0.7,13.3c-2.2-2.2-4.3-3.8-5.8-5.8c-7.5-9.7-15.1-19.3-22-29.5c-7.8-11.5-14.1-23.8-19.7-36.5
			c-6.4-14.6-11.5-29.6-15.1-45.1c-1.8-7.9-3-16-4.4-24C0,252.6-0.2,237.8,0.1,223c0.3-11.4,1.6-22.7,3.8-34
			c2.6-13.2,6.3-26,11.7-38.3c4.5-10.2,9.7-20.2,15.5-29.7c5.8-9.4,12.4-18.5,19.6-26.9c7.2-8.4,15.5-15.7,23.4-23.4
			c1.9-1.8,3.9-3.5,6-5c1.1-0.8,2.8-1.4,4.1-1.3c7.1,0.5,14.1,1.3,21.2,1.9c4.9,0.4,9.7,0.7,14.6,1.1c7.5,0.6,15.1,1.4,22.6,2
			c3.2,0.3,6.5,0.4,9.8,0.5c1.4,0.1,2.2,0,1.9,2.1c-0.7,4.7-0.8,9.5-1.2,14.3c-0.6,6.8-1.4,13.6-2,20.4c-0.4,4.6-0.7,9.2-1.1,13.8
			c-0.6,6.9-1.3,13.8-2.1,20.6c-0.1,0.9-0.8,1.9-1.6,2.4c-10.5,7.3-18.3,16.9-24.7,27.8c-6.2,10.6-10.7,22-13.4,34
			c-1.6,7.1-2.7,14.2-3.5,21.4c-0.7,6.2-1.3,12.5-0.9,18.7c0.6,9.2,1.7,18.5,3.5,27.5c2.3,11.5,6.6,22.4,12.1,32.8
			c4.9,9.2,10.5,17.9,17.5,25.7c3.4,3.8,7,7.4,10.6,11C148.2,343.2,148.8,343.9,149.9,345.1z"/>
		<path class="st0" d="M436.1,150.3c-2.8-0.1-5.7-0.2-8.5-0.4c-2.8-0.2-5.5-0.7-8.3-1c-8.3-0.7-16.7-1.4-25.1-2
			c-5.5-0.4-11-0.6-16.5-1c-5.7-0.4-11.5-1-17.2-1.6c-0.5-0.1-1.1-0.5-1.6-0.9c-9-8.4-18.6-15.8-29.7-21.3
			c-8.7-4.3-17.5-8.7-26.7-11.6c-9.5-3.1-19.5-4.9-29.5-6.6c-7.6-1.3-15.4-2.2-23.1-2c-19,0.4-37.3,4.3-54.8,11.7
			c-11,4.6-21.6,10-31.3,17c-0.4,0.3-0.9,0.4-1.4,0.6c2-24,4-48,6-72c-23.4-1.9-46.7-3.7-69.9-5.6c-0.1-0.2-0.2-0.5-0.3-0.7
			c2.8-2,5.5-4.2,8.5-5.9c9.6-5.5,19.2-11.2,29.1-16.1c16.1-7.9,32.9-13.8,50.3-17.9c10.3-2.4,20.6-4.4,31-6.2
			c6.3-1.1,12.7-1.4,19.1-1.8c8.4-0.6,16.8-1.3,25.3-1.2c11,0.2,22,1,33,1.9c15.2,1.3,29.9,5.1,44.3,10c16.9,5.7,33,13.3,48.2,22.6
			c10.9,6.6,21.4,13.7,31,22.1c7,6.1,13.9,12.5,20.7,18.8c2.2,2,3.3,4.4,2.2,7.7c-0.8,2.3-0.5,5-0.6,7.5c-0.5,7.8-1,15.7-1.5,23.5
			c-0.6,8.8-1.3,17.6-2,26.4C436.7,146.3,436.3,148.2,436.1,150.3z"/>
		<path class="st0" d="M954.4,416.2c0.5-9.2,1-17.7,1.4-26.3c0.6-12.6,1.1-25.2,1.7-37.7c0.1-2.2-0.6-3-2.9-3.1
			c-20-1.1-40.1-2.4-60.1-3.6c-2.9-0.2-5.8-0.4-9.1-0.6c0.5-0.6,0.8-1.1,1.2-1.5c21.5-21.5,37.5-46.4,43.1-76.6
			c7-37.6,1.2-73.3-21-105.2c-3.3-4.7-4.2-8.8-3.7-14.2c1.5-17.4,2.6-34.9,3.8-52.4c0.1-2,0.3-4,0.5-6.3c6.9,0.4,13.6,0.8,20.3,1.3
			c16.6,1.1,33.1,2.2,49.7,3.4c1.5,0.1,3.2,0.8,4.2,1.8c15.5,15.3,26.3,33.7,34.6,53.6c10.2,24.3,15.4,49.7,17,76
			c1.6,25.7,0.1,51.1-6.2,76.1c-11.4,44.7-34.2,82.2-69.9,111.7C957.8,413.8,956.4,414.8,954.4,416.2z"/>
		<path class="st0" d="M968.1,78.1c-24-1.5-47.4-2.9-71.2-4.4c-1.7,22.7-3.5,45.1-5.2,68c-2.7-2.2-5.1-4.1-7.5-6
			c-22.3-17.6-46.9-30.1-75-35.3c-31.6-5.8-62.1-1.5-91.6,10.9c-7.6,3.2-14.7,7.5-22.1,11.3c-1,0.5-2.2,1-3.3,0.9
			c-23.2-1.6-46.4-3.3-69.6-4.9c-0.4,0-0.7-0.1-1.2-0.2c0-2.9-0.2-5.8,0-8.7c0.8-18.5,1.6-37,2.3-55.5c0.1-2.5,1.1-4,2.9-5.5
			c16.3-13.1,34.6-23.1,54-30.8C707.7,7.1,735.8,1.3,765,0.2c64.4-2.5,123,14.8,175,53.1c9.6,7.1,18.1,15.6,27.1,23.5
			C967.3,77,967.5,77.3,968.1,78.1z"/>
		<path class="st0" d="M597.9,404.9c23.4,1.5,46.2,2.9,69.3,4.4c1.9-23.7,3.7-47.2,5.6-71.1c3.1,2.8,5.7,5.4,8.6,7.7
			c25.8,21.4,55.1,34.4,88.6,37.4c20,1.8,39.5-1.8,58.4-8.1c13.5-4.5,26.5-10.3,38.9-17.3c1-0.6,2.4-0.9,3.6-0.8
			c15.6,0.8,31.1,1.8,46.7,2.7c7.5,0.4,14.9,0.9,22.4,1.3c2.1,0.1,2.6,0.7,2.5,2.8c-1.2,20.6-2.3,41.2-3.5,61.8
			c-0.1,1-1,2.3-1.9,2.9c-14.7,11.1-30.8,19.8-47.7,27.1c-32.7,14.2-66.9,21.9-102.5,24c-52,3-99.4-10.7-143.2-38.3
			c-15.7-9.8-30.2-21.1-43.4-34.1C599.5,406.6,598.9,405.9,597.9,404.9z"/>
		<path class="st0" d="M84.4,351.8c6.1,0.4,12.1,0.7,18.1,1.1c3.4,0.2,6.9,0.5,10.3,0.6c4.6,0.2,9.3,0.3,13.9,0.5
			c10.3,0.5,20.6,0.9,30.9,1.5c1.2,0.1,2.5,0.6,3.3,1.4c14.6,13.4,32.1,20.9,51,25.6c8.5,2.1,17.2,3.6,26.1,3.7
			c7.7,0.1,15.5,0.8,23.2,0.3c13.6-0.9,27-2.9,40.1-6.9c12-3.7,23.3-8.6,33.6-15.8c2.9-2.1,5.7-4.3,8.7-6.6c0.1,0.3,0.3,0.7,0.3,1.1
			c-0.5,6.4-1,12.8-1.5,19.1c-0.2,2.8-0.4,5.6-0.5,8.4c-0.3,6.3-0.6,12.6-1,19c-0.4,5.8-1,11.7-1.5,17.5c-0.3,3.5,0,3.7,3.5,4
			c6.5,0.5,13.1,1.3,19.6,2c4.4,0.4,8.8,0.7,13.2,1.1c6.7,0.6,13.4,1.4,20.1,2c4.8,0.4,9.6,0.8,15.3,1.2c-2.2,1.6-3.7,3-5.4,4
			c-8.3,4.8-16.4,9.9-25.1,14c-10.4,5-21,9.5-31.8,13.3c-10.7,3.8-21.7,7-32.7,9.9c-8.2,2.1-16.6,3.5-25,4.8
			c-9.2,1.4-18.5,2.3-27.8,3.5c-0.3,0-0.5,0-0.8,0c-7.7,0.2-15.5,0.8-23.2,0.6c-9.9-0.3-19.8-1.2-29.7-1.9
			c-12.5-0.8-24.7-3-36.7-6.5c-10.7-3.1-21.3-6.7-31.6-10.8c-12.2-4.8-23.7-11.1-34.3-18.8c-5.4-4-10.7-8.2-15.9-12.5
			c-3.4-2.9-6.3-6.5-9.7-9.4c-2.2-1.8-1.8-4-1.7-6.2c0.2-3.1,0.8-6.2,1-9.4c0.4-6.2,0.6-12.5,1-18.7c0.5-7.8,1-15.5,1.5-23.2
			C83.4,361,83.9,356.7,84.4,351.8z"/>
	</g>
</g>
</svg>
