<svg xmlns="http://www.w3.org/2000/svg" width="27.542" height="27.546" viewBox="0 0 27.542 27.546"><defs><style>.a{fill:#c8bfb0;}</style></defs><path class="a" d="M17.521,11.581c.591.591,1.184,1.179,1.772,1.773a2.147,2.147,0,0,1,.006,3.3c-.741.745-1.478,1.494-2.233,2.224a.457.457,0,0,0-.114.594,13.222,13.222,0,0,0,2.02,3.239,23.276,23.276,0,0,0,5.644,5.137c.469.294.987.508,1.475.773a.452.452,0,0,0,.624-.115c.739-.764,1.5-1.511,2.251-2.26a2.132,2.132,0,0,1,3.224,0q1.821,1.8,3.626,3.624a2.155,2.155,0,0,1-.014,3.284c-.686.692-1.411,1.349-2.06,2.075a4.074,4.074,0,0,1-3.483,1.323,14.46,14.46,0,0,1-5.535-1.612,30.136,30.136,0,0,1-9.994-7.819,27.539,27.539,0,0,1-4.873-8.12,10.636,10.636,0,0,1-.809-4.522A3.668,3.668,0,0,1,10.2,12c.77-.733,1.5-1.5,2.261-2.25a2.146,2.146,0,0,1,3.23,0C16.309,10.359,16.913,10.972,17.521,11.581Z" transform="translate(-9.027 -9.022)"/></svg>