<?xml version="1.0" ?><svg style="enable-background:new 0 0 48 48;" version="1.1" viewBox="0 0 48 48" xml:space="preserve" xmlns="http://www.w3.org/2000/svg" xmlns:xlink="http://www.w3.org/1999/xlink"><g id="Padding__x26__Artboard"/><g id="Icons"><g><path d="M23.9978,23.62427c2.85205,0,5.17236-2.32031,5.17236-5.17236s-2.32031-5.17236-5.17236-5.17236    s-5.17236,2.32031-5.17236,5.17236S21.14575,23.62427,23.9978,23.62427z M20.60132,17.84399    c0.05273-0.25684,0.13428-0.50635,0.24219-0.74268c0.08057-0.17578,0.28955-0.25098,0.46436-0.17236    c0.17578,0.08057,0.25293,0.28857,0.17236,0.46436c-0.08643,0.1875-0.15137,0.38672-0.19336,0.59131    c-0.03418,0.16553-0.17969,0.27979-0.34229,0.27979c-0.02344,0-0.04736-0.00244-0.0708-0.00732    C20.68433,18.21802,20.56226,18.03345,20.60132,17.84399z M24.35278,15.42114c0,0.19336-0.15674,0.3501-0.3501,0.3501    c-0.68799,0-1.34766,0.25391-1.85742,0.71484c-0.06689,0.06055-0.15088,0.09033-0.23486,0.09033    c-0.09521,0-0.19043-0.03906-0.25977-0.11523c-0.12939-0.14355-0.11816-0.36475,0.0249-0.49463    c0.63916-0.57715,1.46533-0.89551,2.32715-0.89551C24.19604,15.07104,24.35278,15.22778,24.35278,15.42114z" style="fill:#303030;"/><path d="M23.99976,23.93921c-5.75146,0-10.43115,4.67969-10.43115,10.43164    c0,0.19336,0.15674,0.34961,0.3501,0.34961h20.1626c0.19336,0,0.3501-0.15625,0.3501-0.34961    C34.4314,28.6189,29.75171,23.93921,23.99976,23.93921z" style="fill:#303030;"/></g></g></svg>
