<svg width="24" height="24" xmlns="http://www.w3.org/2000/svg">
 <title/>

 <g>
  <title>background</title>
  <rect fill="none" id="canvas_background" height="402" width="582" y="-1" x="-1"/>
 </g>
 <g>
  <title>Layer 1</title>
  <path fill="#131480" id="svg_1" d="m16.5088,16.8447c0.1475,-0.5068 0.0908,-0.9707 -0.1553,-1.3154c-0.2246,-0.3164 -0.6045,-0.499 -1.0615,-0.5205l-8.6592,-0.1123a0.1559,0.1559 0 0 1 -0.1333,-0.0713c-0.0283,-0.042 -0.0351,-0.0986 -0.021,-0.1553c0.0278,-0.084 0.1123,-0.1484 0.2036,-0.1562l8.7359,-0.1123c1.0351,-0.0489 2.1601,-0.8868 2.5537,-1.9136l0.499,-1.3013c0.0215,-0.0561 0.0293,-0.1128 0.0147,-0.168c-0.5625,-2.5463 -2.835,-4.4453 -5.5499,-4.4453c-2.5039,0 -4.6284,1.6177 -5.3876,3.8614c-0.4927,-0.3658 -1.1187,-0.5625 -1.794,-0.499c-1.2026,0.119 -2.1665,1.083 -2.2861,2.2856c-0.0283,0.31 -0.0069,0.6128 0.0635,0.894c-1.963,0.0558 -3.5313,1.6602 -3.5313,3.6368c0,0.1748 0.0142,0.3515 0.0352,0.5273c0.0141,0.083 0.0844,0.1475 0.1689,0.1475l15.9814,0c0.0909,0 0.1758,-0.0645 0.2032,-0.1553l0.12,-0.4268l0.0001,0zm2.7567,-5.5634c-0.0771,0 -0.1611,0 -0.2383,0.0112c-0.0566,0 -0.1054,0.0415 -0.127,0.0976l-0.3378,1.1744c-0.1475,0.5068 -0.0918,0.9707 0.1543,1.3164c0.2256,0.3164 0.6055,0.498 1.0625,0.5195l1.8437,0.1133c0.0557,0 0.1055,0.0263 0.1329,0.0703c0.0283,0.043 0.0351,0.1074 0.0214,0.1562c-0.0283,0.084 -0.1132,0.1485 -0.204,0.1553l-1.921,0.1123c-1.041,0.0488 -2.1582,0.8867 -2.5527,1.914l-0.1406,0.3585c-0.0283,0.0713 0.0215,0.1416 0.0986,0.1416l6.5977,0c0.0771,0 0.1474,-0.0489 0.169,-0.126c0.1122,-0.4082 0.1757,-0.837 0.1757,-1.2803c0,-2.6025 -2.125,-4.727 -4.7344,-4.727"/>
 </g>
</svg>