<?xml version="1.0" encoding="utf-8"?>
<!-- Generator: Adobe Illustrator 23.0.1, SVG Export Plug-In . SVG Version: 6.00 Build 0)  -->
<svg version="1.1" id="Vrstva_1" xmlns="http://www.w3.org/2000/svg" xmlns:xlink="http://www.w3.org/1999/xlink" x="0px" y="0px"
	 viewBox="0 0 114.5 126.2" style="enable-background:new 0 0 114.5 126.2;" xml:space="preserve">
<style type="text/css">
	.st0{fill:#131480;}
</style>
<path id="path4486_1_" class="st0" d="M57.3,5.7C25.6,5.7,0,31.4,0,63c0,31.7,25.7,57.3,57.3,57.3c31.7,0,57.3-25.7,57.3-57.3
	S88.9,5.7,57.3,5.7z M57.3,113c-9,0-16.3-6.1-16.3-13.4h32.6C73.5,107,66.2,113,57.3,113z M84.1,95.1H30.2v-9.8h53.9L84.1,95.1
	L84.1,95.1z M84,80.4H30.4c-0.1-0.3-0.4-0.4-0.5-0.6c-5.6-6.7-6.8-10.2-8-13.7c0-0.1,6.7,1.4,11.5,2.5c0,0,2.5,0.5,6.1,1.2
	c-3.5-4-5.4-9.2-5.4-14.3c0-11.5,8.8-21.6,5.7-29.6c3.1,0.3,6.5,6.6,6.6,16.3c3.2-4.5,4.7-12.8,4.7-18c0-5.3,3.5-11.4,7-11.6
	c-3.1,5,0.8,9.4,4.3,20.3c1.3,4.1,1.2,11,2.2,15.2c0.4-9,1.9-22.2,7.6-26.8c-2.6,5.7,0.4,12.9,2.3,16.4c3.2,5.6,5.2,9.8,5.2,17.7
	c0,5.3-1.9,10.3-5.3,14.3c3.7-0.6,6.5-1.3,6.5-1.3l12.3-2.5C92.7,65.9,90.9,73.3,84,80.4z"/>
</svg>
