<?xml version="1.0" encoding="utf-8"?>
<!-- Generator: Adobe Illustrator 23.0.1, SVG Export Plug-In . SVG Version: 6.00 Build 0)  -->
<svg version="1.1" id="Vrstva_1" xmlns="http://www.w3.org/2000/svg" xmlns:xlink="http://www.w3.org/1999/xlink" x="0px" y="0px"
	 viewBox="0 0 114.5 126.2" style="enable-background:new 0 0 114.5 126.2;" xml:space="preserve">
<style type="text/css">
	.st0{fill-rule:evenodd;clip-rule:evenodd;fill:#131480;}
</style>
<g>
	<path class="st0" d="M0.1,94.9c9.7-10.6,19.3-21.2,29-31.9C19.4,52.4,9.7,41.8,0,31.1c0.7-0.6,1.4-1.2,2.2-1.8
		c3.4-2.4,7.1-3.5,11.2-3.3c4.9,0.3,8.9,2.3,12.2,5.9c9.3,10.2,18.6,20.4,27.9,30.5c0.2,0.2,0.3,0.3,0.5,0.6
		c-0.2,0.2-0.3,0.4-0.5,0.6c-9.3,10.2-18.6,20.5-27.9,30.7c-2.9,3.2-6.6,5.2-10.9,5.7c-5.6,0.6-10.4-1-14.4-4.9
		C0.2,95.1,0.1,95.1,0.1,94.9z"/>
	<path class="st0" d="M114.5,95c-1.7,1.8-3.7,3.1-5.9,4c-5.9,2.2-11.4,1.6-16.6-2c-1.1-0.7-2.1-1.7-3-2.7
		c-9.3-10.2-18.6-20.4-27.8-30.6c-0.2-0.2-0.4-0.4-0.6-0.6c0.2-0.2,0.3-0.4,0.5-0.6C70.4,52.3,79.6,42.1,88.9,32
		c2.9-3.2,6.5-5.2,10.8-5.8c5.6-0.7,10.6,0.9,14.7,4.8c0,0,0,0.1,0.1,0.2c-9.6,10.6-19.3,21.2-29,31.8
		C95.2,73.7,104.8,84.3,114.5,95z"/>
	<path class="st0" d="M57.3,59.9C44.6,45.9,32,32,19.2,18.1c0.9-0.7,1.7-1.4,2.6-2c7-4.5,15.3-3.3,20.9,2.8
		c4.7,5.2,9.4,10.3,14.1,15.5c0.1,0.1,0.2,0.2,0.4,0.5c0.1-0.2,0.2-0.4,0.4-0.5c4.7-5.1,9.3-10.3,14-15.4c3.6-3.9,8-5.8,13.3-5.5
		c4,0.3,7.4,1.9,10.3,4.7C82.6,32,70,45.9,57.3,59.9z"/>
	<path class="st0" d="M19.3,108c12.7-13.9,25.3-27.8,38-41.8c12.7,13.9,25.3,27.8,38,41.7c-1.1,1.2-2.4,2.1-3.9,2.9
		c-4.5,2.3-9.2,2.6-13.9,0.6c-2.2-0.9-4-2.4-5.7-4.1c-4.7-5.2-9.4-10.3-14.1-15.5c-0.1-0.1-0.2-0.3-0.4-0.5
		c-0.6,0.7-1.1,1.2-1.6,1.8c-4.3,4.7-8.5,9.4-12.8,14.1c-3.6,3.9-8,5.8-13.3,5.5C25.6,112.5,22.2,110.8,19.3,108z"/>
</g>
</svg>
