<?xml version="1.0" encoding="utf-8"?>
<!-- Generator: Adobe Illustrator 23.0.1, SVG Export Plug-In . SVG Version: 6.00 Build 0)  -->
<svg version="1.1" id="Vrstva_1" xmlns="http://www.w3.org/2000/svg" xmlns:xlink="http://www.w3.org/1999/xlink" x="0px" y="0px"
	 viewBox="0 0 114.5 126.2" style="enable-background:new 0 0 114.5 126.2;" xml:space="preserve">
<style type="text/css">
	.st0{fill:#131480;}
</style>
<path class="st0" d="M114.4,53.4l-1.3-7.4c-0.4-2.4-1.4-4.4-2-4.4c-0.8,0-1.4,2-1.4,4.4v2c0,2.4-2,4.4-4.4,4.4H103v5.4h7.8
	C113.2,57.8,114.9,55.7,114.4,53.4 M96.9,47.1H72.5c-0.1,0-0.3,0-0.4,0V46c0-2.4-0.6-4.4-1.4-4.4s-1.6,2-2,4.4l-1.3,7.4
	c-0.4,2.4,1.3,4.4,3.6,4.4h7.4c0.8,0,1.5-0.1,2-0.4c-0.3,1.3-1.4,2.1-2.6,2.1H67.6c-1.6,0-2.9-1.5-2.6-3.1l1-6.3
	c0.3-1.6-1-3.1-2.6-3.1H12.2c-1.1,0-2,0.6-2.5,1.6L0.1,63.4C0,63.6,0,64,0.1,64.1L2,66.4c0.3,0.3,0.6,0.4,0.9,0.1l0,0l6.5-5.1v31.4
	c0,1.5,1.3,2.6,2.6,2.6l0,0h14.5c1.5,0,2.6-1.3,2.6-2.6l0,0V81.9c0-1.5,1.3-2.6,2.6-2.6l0,0H68c1.5,0,2.6,1.3,2.6,2.6l0,0v10.9
	c0,1.5,1.3,2.6,2.6,2.6l0,0h15c1.5,0,2.6-1.3,2.6-2.6l0,0V80.9h-7.6c-2.4,0-4.4-2-4.4-4.4V69c0-1.4,0.6-2.6,1.8-3.5v9
	c0,2.4,2,4.4,4.4,4.4h11.9c2.4,0,4.4-2,4.4-4.4v-23C101.3,49.1,99.3,47.1,96.9,47.1"/>
</svg>
