<?xml version="1.0" encoding="utf-8"?>
<!-- Generator: Adobe Illustrator 23.0.1, SVG Export Plug-In . SVG Version: 6.00 Build 0)  -->
<svg version="1.1" id="Vrstva_1" xmlns="http://www.w3.org/2000/svg" xmlns:xlink="http://www.w3.org/1999/xlink" x="0px" y="0px"
	 viewBox="0 0 114.5 126.2" style="enable-background:new 0 0 114.5 126.2;" xml:space="preserve">
<style type="text/css">
	.st0{fill:#131480;}
	.st1{fill:#FFFFFF;}
</style>
<g>
	<polygon class="st1" points="52.3,60.6 69.2,73.9 58,46.2 	"/>
	<path class="st1" d="M57.3,19.6c-24,0-43.4,19.5-43.4,43.4c0,24,19.5,43.4,43.4,43.4c24,0,43.5-19.5,43.5-43.4
		C100.7,39.1,81.3,19.6,57.3,19.6z M75.1,84.7c-0.8,0-1.5-0.3-2.4-1.1L50.3,65.5l-7.5,18.8h-6.5l19-45.7c0.5-1.2,1.6-1.8,2.8-1.8
		c1.2,0,2.2,0.6,2.7,1.8L78,80.3c0.2,0.5,0.3,1,0.3,1.3C78.3,83.4,76.8,84.7,75.1,84.7z"/>
</g>
</svg>
