<?xml version="1.0" encoding="utf-8"?>
<!-- Generator: Adobe Illustrator 23.0.1, SVG Export Plug-In . SVG Version: 6.00 Build 0)  -->
<svg version="1.1" id="Vrstva_1" xmlns="http://www.w3.org/2000/svg" xmlns:xlink="http://www.w3.org/1999/xlink" x="0px" y="0px"
	 viewBox="0 0 114.5 126.2" style="enable-background:new 0 0 114.5 126.2;" xml:space="preserve">
<style type="text/css">
	.st0{fill:#FFFFFF;}
</style>
<path class="st0" d="M62.5,59.6H50.7V49h11.8V59.6L62.5,59.6z M62.5,23.1H50.7V34h11.8V23.1z M76.5,49H64.7v10.6h11.8V49L76.5,49z
	 M48.6,36.1H36.8v10.7h11.8C48.6,46.8,48.6,36.1,48.6,36.1z M62.5,36.1H50.7v10.7h11.8V36.1z M112,54c-2.6-1.8-8.5-2.4-13.1-1.5
	c-0.6-4.3-3-8-7.4-11.4L89,39.3l-1.7,2.5c-3.3,5-4.2,13.1-0.7,18.6c-1.5,0.8-4.6,2-8.7,1.9H0.4c-1.5,9.1,1.1,20.9,7.9,29
	c6.7,7.9,16.6,11.8,29.6,11.8c28.1,0,49-13,58.8-36.5c3.8,0.1,12,0,16.3-8.1c0.2-0.5,1.2-2.4,1.5-3.1L112,54L112,54z M20.7,49H8.9
	v10.6h11.8V49L20.7,49z M34.6,49H22.8v10.6h11.8V49z M48.6,49H36.8v10.6h11.8C48.6,59.6,48.6,49,48.6,49z M34.6,36.1H22.8v10.7h11.8
	V36.1z"/>
</svg>
