<?xml version="1.0" encoding="utf-8"?>
<!-- Generator: Adobe Illustrator 23.0.1, SVG Export Plug-In . SVG Version: 6.00 Build 0)  -->
<svg version="1.1" id="Vrstva_1" xmlns="http://www.w3.org/2000/svg" xmlns:xlink="http://www.w3.org/1999/xlink" x="0px" y="0px"
	 viewBox="0 0 114.5 126.2" style="enable-background:new 0 0 114.5 126.2;" xml:space="preserve">
<style type="text/css">
	.st0{fill:#131480;}
	.st1{fill:#FFFFFF;}
</style>
<path class="st1" d="M64,60.1h-9.9v-8.9H64V60.1L64,60.1z M64,29.5h-9.9v9.1H64V29.5z M75.7,51.2h-9.9v8.9h9.9V51.2L75.7,51.2z
	 M52.3,40.4h-9.9v9h9.9V40.4z M64,40.4h-9.9v9H64V40.4z M105.5,55.4c-2.2-1.5-7.1-2-11-1.3c-0.5-3.6-2.5-6.7-6.2-9.6l-2.1-1.4
	l-1.4,2.1c-2.8,4.2-3.5,11-0.6,15.6c-1.3,0.7-3.9,1.7-7.3,1.6H11.9c-1.3,7.6,0.9,17.5,6.6,24.3c5.6,6.6,13.9,9.9,24.8,9.9
	c23.6,0,41.1-10.9,49.3-30.6c3.2,0.1,10.1,0,13.7-6.8c0.2-0.4,1-2,1.3-2.6L105.5,55.4L105.5,55.4z M28.9,51.2H19v8.9h9.9L28.9,51.2
	L28.9,51.2z M40.6,51.2h-9.9v8.9h9.9V51.2z M52.3,51.2h-9.9v8.9h9.9V51.2z M40.6,40.4h-9.9v9h9.9V40.4z"/>
</svg>
