<?xml version="1.0" encoding="utf-8"?>
<!-- Generator: Adobe Illustrator 23.0.1, SVG Export Plug-In . SVG Version: 6.00 Build 0)  -->
<svg version="1.1" id="Vrstva_1" xmlns="http://www.w3.org/2000/svg" xmlns:xlink="http://www.w3.org/1999/xlink" x="0px" y="0px"
	 viewBox="0 0 114.5 126.2" style="enable-background:new 0 0 114.5 126.2;" xml:space="preserve">
<style type="text/css">
	.st0{fill:#FFFFFF;}
</style>
<path class="st0" d="M54.1,79.3H11.3c-1.6-5.1-2.4-10.5-2.4-15.9c0-5.5,0.8-10.9,2.4-15.9h70.3c8.7,0,15.9,7,15.9,15.8
	c0,0,0,0.1,0,0.1c0,8.7-7,15.8-15.7,15.9c0,0,0,0,0,0H54.1z M52.1,84.6H13.2c4.1,9.4,10.9,17.4,19.5,23c8.6,5.7,18.7,8.8,29.1,8.7
	c18.4,0,34.5-9.4,44-23.5c-5.1-5.2-12-8.2-19.3-8.3L52.1,84.6z M86.5,42.3c7.5,0,14.4-3.2,19.3-8.2C89.5,9.7,56.5,3.2,32.2,19.6
	c-8.4,5.6-15,13.5-19,22.7H52L86.5,42.3z"/>
</svg>
