<?xml version="1.0" encoding="utf-8"?>
<!-- Generator: Adobe Illustrator 23.0.1, SVG Export Plug-In . SVG Version: 6.00 Build 0)  -->
<svg version="1.1" id="Vrstva_1" xmlns="http://www.w3.org/2000/svg" xmlns:xlink="http://www.w3.org/1999/xlink" x="0px" y="0px"
	 viewBox="0 0 114.5 126.2" style="enable-background:new 0 0 114.5 126.2;" xml:space="preserve">
<style type="text/css">
	.st0{fill:#131480;}
	.st1{fill:#FFFFFF;}
</style>
<path class="st1" d="M98.3,59.3L61.1,22c-2.1-2.1-5.6-2.1-7.8,0l-7.7,7.7l9.8,9.8c5.2-1.7,10,3.2,8.3,8.3l9.5,9.5
	c6.5-2.2,11.7,5.9,6.8,10.8c-5,5-13.4-0.5-10.7-7.1l-8.8-8.8v23.2c4.8,2.4,4.2,8,1.7,10.5c-2.6,2.6-6.7,2.6-9.2,0
	c-3.3-3.4-2.1-8.9,2.1-10.7V51.8c-4-1.6-4.7-5.9-3.5-8.6l-9.7-9.7L16.2,59.1c-2.1,2.1-2.1,5.6,0,7.8l37.3,37.3
	c2.1,2.1,5.6,2.1,7.8,0l37.1-37.1C100.5,64.9,100.5,61.4,98.3,59.3L98.3,59.3z"/>
</svg>
