<?xml version="1.0" encoding="utf-8"?>
<!-- Generator: Adobe Illustrator 23.0.1, SVG Export Plug-In . SVG Version: 6.00 Build 0)  -->
<svg version="1.1" id="Vrstva_1" xmlns="http://www.w3.org/2000/svg" xmlns:xlink="http://www.w3.org/1999/xlink" x="0px" y="0px"
	 viewBox="0 0 114.5 126.2" style="enable-background:new 0 0 114.5 126.2;" xml:space="preserve">
<style type="text/css">
	.st0{fill:#FFFFFF;}
</style>
<path class="st0" d="M112.3,58L62.4,8c-2.8-2.8-7.5-2.8-10.5,0L41.6,18.3l13.1,13.1c7-2.3,13.4,4.3,11.1,11.1l12.7,12.7
	c8.7-3,15.7,7.9,9.1,14.5c-6.7,6.7-18-0.7-14.4-9.5L61.6,48.5v31.1c6.4,3.2,5.6,10.7,2.3,14.1c-3.5,3.5-9,3.5-12.3,0
	c-4.4-4.6-2.8-11.9,2.8-14.4V48c-5.4-2.1-6.3-7.9-4.7-11.5l-13-13L2.1,57.8c-2.8,2.8-2.8,7.5,0,10.5l50,50c2.8,2.8,7.5,2.8,10.5,0
	l49.8-49.8C115.2,65.6,115.2,60.9,112.3,58L112.3,58z"/>
</svg>
