<?xml version="1.0" encoding="utf-8"?>
<!-- Generator: Adobe Illustrator 23.0.1, SVG Export Plug-In . SVG Version: 6.00 Build 0)  -->
<svg version="1.1" id="Vrstva_1" xmlns="http://www.w3.org/2000/svg" xmlns:xlink="http://www.w3.org/1999/xlink" x="0px" y="0px"
	 viewBox="0 0 114.5 126.2" style="enable-background:new 0 0 114.5 126.2;" xml:space="preserve">
<style type="text/css">
	.st0{fill:#131480;}
	.st1{fill:#FFFFFF;}
</style>
<path class="st1" d="M34.2,27.7c-0.5-1.4-2.4-1.4-2.9,0l-8.7,26.8h20.2C42.8,54.5,34.2,27.7,34.2,27.7z M18.2,68
	c-0.4,1.2,0,2.6,1.1,3.4l38,28.2l-34.7-45L18.2,68z M42.8,54.5l14.4,45l14.4-45H42.8z M96.4,68l-4.4-13.5l-34.7,45l38-28.2
	C96.3,70.5,96.7,69.2,96.4,68z M83.3,27.7c-0.5-1.4-2.4-1.4-2.9,0l-8.7,26.8h20.2L83.3,27.7z"/>
</svg>
