<?xml version="1.0" encoding="utf-8"?>
<!-- Generator: Adobe Illustrator 23.0.1, SVG Export Plug-In . SVG Version: 6.00 Build 0)  -->
<svg version="1.1" id="Vrstva_1" xmlns="http://www.w3.org/2000/svg" xmlns:xlink="http://www.w3.org/1999/xlink" x="0px" y="0px"
	 viewBox="0 0 114.5 126.2" style="enable-background:new 0 0 114.5 126.2;" xml:space="preserve">
<style type="text/css">
	.st0{fill:#131480;}
	.st1{fill:#FFFFFF;}
</style>
<g>
	<path class="st1" d="M59.6,24.5c0.8,0,1.5,0.2,2.2,0.5l27.6,13.2c1.4,0.7,2.5,2,2.8,3.6l6.8,29.7c0.4,1.6,0,3.2-1,4.5L79,99.6
		c-1,1.3-2.5,2-4.1,2H44.2c-1.6,0-3.1-0.7-4.1-2L21,75.9c-1-1.3-1.4-2.9-1-4.5l6.8-29.7c0.4-1.6,1.4-2.9,2.8-3.6L57.3,25
		C58,24.7,58.8,24.5,59.6,24.5L59.6,24.5z M59.6,22L59.6,22c-1.1,0-2.3,0.3-3.4,0.8L28.6,35.9c-2.2,1-3.7,3-4.3,5.3l-6.8,29.7
		c-0.5,2.3,0,4.8,1.5,6.7l19.1,23.8c1.5,1.9,3.7,2.9,6.1,2.9h30.6c2.4,0,4.6-1,6.1-2.9L100,77.6c1.5-1.9,2.1-4.3,1.5-6.7l-6.8-29.7
		c-0.5-2.3-2.1-4.3-4.3-5.3L62.9,22.7C61.9,22.2,60.7,22,59.6,22L59.6,22L59.6,22z"/>
	<path class="st1" d="M87.3,69L87.3,69L87.3,69C87.2,69,87.2,69,87.3,69L87.3,69c-0.1,0-0.2,0-0.2-0.1c-0.1,0-0.2-0.1-0.3-0.1
		c-0.4-0.1-0.7-0.1-1-0.1c-0.2,0-0.3,0-0.5-0.1h-0.1c-1.1-0.1-2.1-0.2-3-0.5c-0.4-0.2-0.5-0.4-0.6-0.6c0-0.1-0.1-0.1-0.1-0.1l0,0
		l-0.7-0.2c0.3-2.5,0.2-5.1-0.4-7.7c-0.6-2.6-1.6-5-3.1-7.2L78,52v-0.1c0-0.3,0.1-0.5,0.3-0.8c0.7-0.6,1.5-1.1,2.5-1.7l0,0
		c0.2-0.1,0.3-0.2,0.5-0.3c0.3-0.2,0.6-0.3,0.9-0.5c0.1-0.1,0.2-0.1,0.3-0.2c0.1-0.1,0.1-0.1,0.1-0.1l0,0c0.8-0.7,0.9-1.7,0.4-2.5
		c-0.3-0.4-0.8-0.6-1.3-0.6c-0.4,0-0.8,0.2-1.2,0.4l0,0l0,0c-0.1,0.1-0.1,0.1-0.1,0.1c-0.1,0.1-0.2,0.2-0.3,0.2
		c-0.3,0.3-0.5,0.5-0.7,0.8c-0.1,0.1-0.2,0.3-0.4,0.4l0,0c-0.8,0.8-1.5,1.5-2.2,2c-0.2,0.1-0.3,0.2-0.5,0.2c-0.1,0-0.2,0-0.3-0.1
		h-0.1l0,0l-0.7,0.4c-0.7-0.8-1.5-1.4-2.2-2.1c-3.3-2.6-7.3-4.2-11.4-4.5l-0.1-0.7c-0.1-0.1-0.1-0.1-0.1-0.1
		c-0.2-0.2-0.4-0.3-0.4-0.7c-0.1-0.9,0.1-1.9,0.2-2.9v-0.1c0-0.2,0.1-0.4,0.1-0.5c0.1-0.3,0.1-0.7,0.2-1v-0.3v-0.2l0,0l0,0
		c0-1-0.8-1.8-1.7-1.8c-0.4,0-0.9,0.2-1.2,0.5c-0.3,0.3-0.5,0.8-0.5,1.3l0,0l0,0v0.1v0.3c0,0.4,0.1,0.7,0.2,1
		c0.1,0.2,0.1,0.3,0.1,0.5v0.1c0.1,1.1,0.3,2.1,0.2,3c-0.1,0.4-0.3,0.5-0.4,0.7c-0.1,0.1-0.1,0.1-0.1,0.1l0,0l-0.1,0.7
		c-1,0.1-2,0.2-2.9,0.4c-4.2,0.9-7.9,3.1-10.8,6.1l-0.5-0.4h-0.1c-0.1,0-0.2,0.1-0.3,0.1c-0.2,0-0.3-0.1-0.5-0.2
		c-0.7-0.5-1.4-1.2-2.2-2l0,0c-0.1-0.1-0.2-0.3-0.4-0.4c-0.2-0.3-0.4-0.5-0.7-0.8c-0.1-0.1-0.2-0.1-0.3-0.2
		c-0.1-0.1-0.1-0.1-0.1-0.1l0,0c-0.3-0.3-0.8-0.4-1.2-0.4c-0.5,0-1,0.2-1.3,0.6c-0.5,0.7-0.4,1.8,0.4,2.5l0,0l0,0
		c0.1,0,0.1,0.1,0.1,0.1c0.1,0.1,0.2,0.2,0.3,0.2c0.3,0.2,0.6,0.4,0.9,0.5c0.2,0.1,0.3,0.2,0.5,0.3l0,0c1,0.6,1.8,1.1,2.5,1.7
		c0.3,0.3,0.3,0.5,0.3,0.8v0.1l0,0l0.5,0.5c-0.1,0.2-0.2,0.3-0.3,0.4c-2.7,4.3-3.8,9.4-3.1,14.4l-0.7,0.2c0,0.1-0.1,0.1-0.1,0.1
		c-0.1,0.2-0.3,0.4-0.6,0.6c-0.8,0.3-1.8,0.4-3,0.5h-0.1c-0.2,0-0.4,0-0.5,0.1c-0.3,0-0.7,0.1-1,0.1c-0.1,0-0.2,0.1-0.3,0.1
		c-0.1,0-0.1,0-0.2,0.1l0,0l0,0c-1,0.2-1.6,1.1-1.4,2c0.2,0.8,0.9,1.3,1.7,1.3c0.2,0,0.3,0,0.4-0.1l0,0l0,0c0.1,0,0.1,0,0.1-0.1
		c0.1,0,0.2-0.1,0.3-0.1c0.4-0.1,0.7-0.2,1-0.4c0.2-0.1,0.3-0.2,0.5-0.2h0.1c1-0.4,2-0.7,2.8-0.8h0.1c0.3,0,0.5,0.2,0.7,0.3
		c0.1,0,0.1,0.1,0.1,0.1l0,0l0.8-0.1c1.3,4,3.8,7.6,7.2,10.3c0.8,0.6,1.5,1.1,2.4,1.6l-0.3,0.7c0,0.1,0.1,0.1,0.1,0.1
		c0.1,0.2,0.2,0.5,0.1,0.9c-0.3,0.8-0.8,1.6-1.4,2.6V87c-0.1,0.2-0.2,0.3-0.3,0.4c-0.2,0.3-0.4,0.5-0.6,0.9
		c-0.1,0.1-0.1,0.2-0.2,0.3c0,0.1-0.1,0.1-0.1,0.1l0,0l0,0c-0.4,0.9-0.1,2,0.7,2.3c0.2,0.1,0.4,0.2,0.7,0.2c0.7,0,1.3-0.4,1.6-1l0,0
		l0,0c0-0.1,0.1-0.1,0.1-0.1c0.1-0.1,0.1-0.2,0.2-0.3c0.2-0.4,0.2-0.7,0.3-1c0.1-0.2,0.1-0.3,0.2-0.5l0,0c0.4-1.1,0.7-2,1.1-2.7
		c0.2-0.3,0.5-0.4,0.7-0.5c0.1,0,0.1,0,0.1-0.1l0,0l0.4-0.7c2.4,0.9,5,1.4,7.6,1.4c1.6,0,3.2-0.2,4.8-0.5c1-0.2,1.9-0.5,2.8-0.8
		l0.3,0.6c0.1,0,0.1,0,0.1,0.1c0.3,0.1,0.5,0.2,0.7,0.5c0.4,0.8,0.8,1.7,1.1,2.7v0.1c0.1,0.2,0.1,0.3,0.2,0.5c0.1,0.3,0.2,0.7,0.3,1
		c0.1,0.1,0.1,0.2,0.2,0.3c0,0.1,0.1,0.1,0.1,0.1l0,0l0,0c0.3,0.7,1,1,1.6,1c0.2,0,0.4-0.1,0.7-0.2c0.4-0.2,0.7-0.5,0.8-1
		c0.1-0.4,0.1-0.9-0.1-1.4l0,0l0,0c0-0.1-0.1-0.1-0.1-0.1c-0.1-0.1-0.1-0.2-0.2-0.3c-0.2-0.3-0.4-0.6-0.6-0.9
		c-0.1-0.2-0.2-0.3-0.3-0.4v-0.1c-0.6-0.9-1.1-1.7-1.4-2.6c-0.1-0.4,0-0.6,0.1-0.9c0-0.1,0.1-0.1,0.1-0.1l0,0l-0.3-0.7
		c2.9-1.7,5.4-4.1,7.2-7c1-1.5,1.7-3.2,2.3-4.9l0.7,0.1c0.1,0,0.1-0.1,0.1-0.1c0.2-0.1,0.4-0.3,0.7-0.3h0.1c0.9,0.1,1.8,0.4,2.8,0.8
		h0.1c0.2,0.1,0.3,0.2,0.5,0.2c0.3,0.2,0.6,0.3,1,0.4c0.1,0,0.2,0.1,0.3,0.1c0.1,0,0.1,0,0.2,0.1l0,0c0.2,0.1,0.3,0.1,0.4,0.1
		c0.8,0,1.5-0.5,1.7-1.3C88.9,70.2,88.3,69.3,87.3,69L87.3,69z M62,66.4l-2.4,1.1l-2.4-1.1l-0.6-2.6l1.6-2.1h2.7l1.6,2.1L62,66.4
		L62,66.4z M76.3,60.7c0.4,1.9,0.5,3.7,0.4,5.5l-8.4-2.4c-0.8-0.2-1.2-1-1-1.7c0.1-0.2,0.2-0.4,0.3-0.6l6.6-6
		C75.1,57,75.8,58.8,76.3,60.7L76.3,60.7z M71.6,52.2l-7.2,5.1c-0.6,0.4-1.4,0.3-1.9-0.3c-0.2-0.2-0.2-0.4-0.3-0.6l-0.5-8.9
		C65.5,47.9,68.9,49.6,71.6,52.2L71.6,52.2z M55.7,47.7c0.6-0.1,1.1-0.2,1.7-0.3L57,56.2c-0.1,0.8-0.7,1.4-1.5,1.4
		c-0.2,0-0.5-0.1-0.7-0.2l-7.3-5.2C49.8,50,52.6,48.5,55.7,47.7L55.7,47.7z M45,55.5l6.5,5.8c0.6,0.5,0.7,1.4,0.2,2
		c-0.2,0.2-0.4,0.4-0.7,0.4l-8.5,2.5C42.2,62.5,43,58.7,45,55.5L45,55.5z M43.5,70.3l8.7-1.5c0.7-0.1,1.4,0.4,1.5,1.1
		c0.1,0.3,0.1,0.6-0.1,0.9l0,0l-3.3,8C47.3,76.9,44.8,73.9,43.5,70.3L43.5,70.3z M63.4,81.2c-1.3,0.3-2.5,0.4-3.8,0.4
		c-1.9,0-3.8-0.3-5.5-0.9l4.3-7.8c0.4-0.5,1.1-0.7,1.7-0.4c0.3,0.2,0.5,0.4,0.7,0.6l0,0l4.2,7.6C64.5,80.9,64,81,63.4,81.2
		L63.4,81.2z M74.1,73.6c-1.4,2.2-3.2,3.9-5.2,5.3l-3.4-8.2c-0.2-0.7,0.1-1.4,0.8-1.7c0.2-0.1,0.5-0.2,0.8-0.2l8.7,1.5
		C75.3,71.5,74.8,72.5,74.1,73.6L74.1,73.6z"/>
</g>
</svg>
