<?xml version="1.0" encoding="utf-8"?>
<!-- Generator: Adobe Illustrator 23.0.1, SVG Export Plug-In . SVG Version: 6.00 Build 0)  -->
<svg version="1.1" id="Vrstva_1" xmlns="http://www.w3.org/2000/svg" xmlns:xlink="http://www.w3.org/1999/xlink" x="0px" y="0px"
	 viewBox="0 0 114.5 126.2" style="enable-background:new 0 0 114.5 126.2;" xml:space="preserve">
<style type="text/css">
	.st0{fill:#FFFFFF;}
</style>
<g>
	<path class="st0" d="M57.4,8.5c1.1,0,2,0.3,3,0.7l37.4,17.9c1.9,0.9,3.4,2.7,3.8,4.9l9.2,40.3c0.5,2.2,0,4.3-1.4,6.1l-25.8,32
		c-1.4,1.8-3.4,2.7-5.6,2.7H36.5c-2.2,0-4.2-0.9-5.6-2.7L5,78.2c-1.4-1.8-1.9-3.9-1.4-6.1l9.2-40.3c0.5-2.2,1.9-3.9,3.8-4.9
		L54.2,9.2C55.2,8.8,56.3,8.5,57.4,8.5L57.4,8.5z M57.4,5.1L57.4,5.1c-1.5,0-3.1,0.4-4.6,1.1L15.3,24c-3,1.4-5,4.1-5.8,7.2L0.3,71.4
		c-0.7,3.1,0,6.5,2,9.1l25.9,32.3c2,2.6,5,3.9,8.3,3.9H78c3.3,0,6.2-1.4,8.3-3.9l25.9-32.3c2-2.6,2.8-5.8,2-9.1L105,31.2
		c-0.7-3.1-2.8-5.8-5.8-7.2L61.8,6.1C60.5,5.4,58.8,5.1,57.4,5.1L57.4,5.1L57.4,5.1z"/>
	<path class="st0" d="M94.9,68.9L94.9,68.9L94.9,68.9C94.8,68.9,94.8,68.9,94.9,68.9L94.9,68.9c-0.1,0-0.3,0-0.3-0.1
		c-0.1,0-0.3-0.1-0.4-0.1c-0.5-0.1-0.9-0.1-1.4-0.1c-0.3,0-0.4,0-0.7-0.1h-0.1c-1.5-0.1-2.8-0.3-4.1-0.7c-0.5-0.3-0.7-0.5-0.8-0.8
		c0-0.1-0.1-0.1-0.1-0.1l0,0l-0.9-0.3c0.4-3.4,0.3-6.9-0.5-10.4c-0.8-3.5-2.2-6.8-4.2-9.8l0.9-0.4v-0.1c0-0.4,0.1-0.7,0.4-1.1
		c0.9-0.8,2-1.5,3.4-2.3l0,0c0.3-0.1,0.4-0.3,0.7-0.4c0.4-0.3,0.8-0.4,1.2-0.7c0.1-0.1,0.3-0.1,0.4-0.3c0.1-0.1,0.1-0.1,0.1-0.1l0,0
		c1.1-0.9,1.2-2.3,0.5-3.4c-0.4-0.5-1.1-0.8-1.8-0.8c-0.5,0-1.1,0.3-1.6,0.5l0,0l0,0c-0.1,0.1-0.1,0.1-0.1,0.1
		c-0.1,0.1-0.3,0.3-0.4,0.3c-0.4,0.4-0.7,0.7-0.9,1.1c-0.1,0.1-0.3,0.4-0.5,0.5l0,0c-1.1,1.1-2,2-3,2.7c-0.3,0.1-0.4,0.3-0.7,0.3
		c-0.1,0-0.3,0-0.4-0.1h-0.1l0,0l-0.9,0.5c-0.9-1.1-2-1.9-3-2.8c-4.5-3.5-9.9-5.7-15.5-6.1l-0.1-0.9c-0.1-0.1-0.1-0.1-0.1-0.1
		c-0.3-0.3-0.5-0.4-0.5-0.9c-0.1-1.2,0.1-2.6,0.3-3.9v-0.1c0-0.3,0.1-0.5,0.1-0.7c0.1-0.4,0.1-0.9,0.3-1.4v-0.4v-0.3l0,0l0,0
		c0-1.4-1.1-2.4-2.3-2.4c-0.5,0-1.2,0.3-1.6,0.7s-0.7,1.1-0.7,1.8l0,0l0,0v0.1v0.4c0,0.5,0.1,0.9,0.3,1.4c0.1,0.3,0.1,0.4,0.1,0.7
		v0.1c0.1,1.5,0.4,2.8,0.3,4.1c-0.1,0.5-0.4,0.7-0.5,0.9c-0.1,0.1-0.1,0.1-0.1,0.1l0,0l-0.1,0.9c-1.4,0.1-2.7,0.3-3.9,0.5
		c-5.7,1.2-10.7,4.2-14.6,8.3l-0.7-0.5h-0.1c-0.1,0-0.3,0.1-0.4,0.1c-0.3,0-0.4-0.1-0.7-0.3c-0.9-0.7-1.9-1.6-3-2.7l0,0
		c-0.1-0.1-0.3-0.4-0.5-0.5c-0.3-0.4-0.5-0.7-0.9-1.1c-0.1-0.1-0.3-0.1-0.4-0.3C29.7,37,29.7,37,29.7,37l0,0
		c-0.4-0.4-1.1-0.5-1.6-0.5c-0.7,0-1.4,0.3-1.8,0.8c-0.7,0.9-0.5,2.4,0.5,3.4l0,0l0,0c0.1,0,0.1,0.1,0.1,0.1
		c0.1,0.1,0.3,0.3,0.4,0.3c0.4,0.3,0.8,0.5,1.2,0.7c0.3,0.1,0.4,0.3,0.7,0.4l0,0c1.4,0.8,2.4,1.5,3.4,2.3c0.4,0.4,0.4,0.7,0.4,1.1
		v0.1l0,0l0.7,0.7c-0.1,0.3-0.3,0.4-0.4,0.5c-3.7,5.8-5.2,12.7-4.2,19.5l-0.9,0.3c0,0.1-0.1,0.1-0.1,0.1c-0.1,0.3-0.4,0.5-0.8,0.8
		c-1.1,0.4-2.4,0.5-4.1,0.7H23c-0.3,0-0.5,0-0.7,0.1c-0.4,0-0.9,0.1-1.4,0.1c-0.1,0-0.3,0.1-0.4,0.1s-0.1,0-0.3,0.1l0,0l0,0
		c-1.4,0.3-2.2,1.5-1.9,2.7c0.3,1.1,1.2,1.8,2.3,1.8c0.3,0,0.4,0,0.5-0.1l0,0l0,0c0.1,0,0.1,0,0.1-0.1c0.1,0,0.3-0.1,0.4-0.1
		c0.5-0.1,0.9-0.3,1.4-0.5c0.3-0.1,0.4-0.3,0.7-0.3H24c1.4-0.5,2.7-0.9,3.8-1.1h0.1c0.4,0,0.7,0.3,0.9,0.4c0.1,0,0.1,0.1,0.1,0.1
		l0,0l1.1-0.1c1.8,5.4,5.2,10.3,9.8,14c1.1,0.8,2,1.5,3.3,2.2l-0.4,0.9c0,0.1,0.1,0.1,0.1,0.1c0.1,0.3,0.3,0.7,0.1,1.2
		c-0.4,1.1-1.1,2.2-1.9,3.5v-0.1c-0.1,0.3-0.3,0.4-0.4,0.5c-0.3,0.4-0.5,0.7-0.8,1.2c-0.1,0.1-0.1,0.3-0.3,0.4
		c0,0.1-0.1,0.1-0.1,0.1l0,0l0,0c-0.5,1.2-0.1,2.7,0.9,3.1c0.3,0.1,0.5,0.3,0.9,0.3c0.9,0,1.8-0.5,2.2-1.4l0,0l0,0
		c0-0.1,0.1-0.1,0.1-0.1c0.1-0.1,0.1-0.3,0.3-0.4c0.3-0.5,0.3-0.9,0.4-1.4c0.1-0.3,0.1-0.4,0.3-0.7l0,0c0.5-1.5,0.9-2.7,1.5-3.7
		c0.3-0.4,0.7-0.5,0.9-0.7c0.1,0,0.1,0,0.1-0.1l0,0l0.5-0.9c3.3,1.2,6.8,1.9,10.3,1.9c2.2,0,4.3-0.3,6.5-0.7
		c1.4-0.3,2.6-0.7,3.8-1.1l0.4,0.8c0.1,0,0.1,0,0.1,0.1c0.4,0.1,0.7,0.3,0.9,0.7c0.5,1.1,1.1,2.3,1.5,3.7v0.1
		c0.1,0.3,0.1,0.4,0.3,0.7c0.1,0.4,0.3,0.9,0.4,1.4c0.1,0.1,0.1,0.3,0.3,0.4c0,0.1,0.1,0.1,0.1,0.1l0,0l0,0c0.4,0.9,1.4,1.4,2.2,1.4
		c0.3,0,0.5-0.1,0.9-0.3c0.5-0.3,0.9-0.7,1.1-1.4c0.1-0.5,0.1-1.2-0.1-1.9l0,0l0,0c0-0.1-0.1-0.1-0.1-0.1c-0.1-0.1-0.1-0.3-0.3-0.4
		c-0.3-0.4-0.5-0.8-0.8-1.2c-0.1-0.3-0.3-0.4-0.4-0.5v-0.1c-0.8-1.2-1.5-2.3-1.9-3.5c-0.1-0.5,0-0.8,0.1-1.2c0-0.1,0.1-0.1,0.1-0.1
		l0,0l-0.4-0.9c3.9-2.3,7.3-5.6,9.8-9.5c1.4-2,2.3-4.3,3.1-6.6l0.9,0.1c0.1,0,0.1-0.1,0.1-0.1c0.3-0.1,0.5-0.4,0.9-0.4h0.1
		c1.2,0.1,2.4,0.5,3.8,1.1h0.1c0.3,0.1,0.4,0.3,0.7,0.3c0.4,0.3,0.8,0.4,1.4,0.5c0.1,0,0.3,0.1,0.4,0.1c0.1,0,0.1,0,0.3,0.1l0,0
		c0.3,0.1,0.4,0.1,0.5,0.1c1.1,0,2-0.7,2.3-1.8C97.1,70.5,96.3,69.3,94.9,68.9L94.9,68.9z M60.6,65.3l-3.3,1.5l-3.3-1.5l-0.8-3.5
		l2.2-2.8h3.7l2.2,2.8L60.6,65.3L60.6,65.3z M80,57.6c0.5,2.6,0.7,5,0.5,7.5l-11.4-3.3c-1.1-0.3-1.6-1.4-1.4-2.3
		c0.1-0.3,0.3-0.5,0.4-0.8l9-8.1C78.4,52.6,79.3,55,80,57.6L80,57.6z M73.6,46.1L63.9,53c-0.8,0.5-1.9,0.4-2.6-0.4
		c-0.3-0.3-0.3-0.5-0.4-0.8l-0.7-12.1C65.4,40.3,70,42.6,73.6,46.1L73.6,46.1z M52.1,40c0.8-0.1,1.5-0.3,2.3-0.4l-0.5,11.9
		c-0.1,1.1-0.9,1.9-2,1.9c-0.3,0-0.7-0.1-0.9-0.3l-9.9-7.1C44.1,43.1,47.9,41.1,52.1,40L52.1,40z M37.6,50.6l8.8,7.9
		c0.8,0.7,0.9,1.9,0.3,2.7c-0.3,0.3-0.5,0.5-0.9,0.5l-11.5,3.4C33.8,60.1,34.8,54.9,37.6,50.6L37.6,50.6z M35.5,70.6l11.8-2
		c0.9-0.1,1.9,0.5,2,1.5c0.1,0.4,0.1,0.8-0.1,1.2l0,0l-4.5,10.9C40.7,79.6,37.3,75.5,35.5,70.6L35.5,70.6z M62.5,85.4
		c-1.8,0.4-3.4,0.5-5.2,0.5c-2.6,0-5.2-0.4-7.5-1.2l5.8-10.6c0.5-0.7,1.5-0.9,2.3-0.5c0.4,0.3,0.7,0.5,0.9,0.8l0,0l5.7,10.3
		C64,85,63.3,85.1,62.5,85.4L62.5,85.4z M77,75.1c-1.9,3-4.3,5.3-7.1,7.2l-4.6-11.1c-0.3-0.9,0.1-1.9,1.1-2.3
		c0.3-0.1,0.7-0.3,1.1-0.3l11.8,2C78.7,72.3,78,73.6,77,75.1L77,75.1z"/>
</g>
</svg>
