<?xml version="1.0" encoding="utf-8"?>
<!-- Generator: Adobe Illustrator 23.0.1, SVG Export Plug-In . SVG Version: 6.00 Build 0)  -->
<svg version="1.1" id="Vrstva_1" xmlns="http://www.w3.org/2000/svg" xmlns:xlink="http://www.w3.org/1999/xlink" x="0px" y="0px"
	 viewBox="0 0 114.5 126.2" style="enable-background:new 0 0 114.5 126.2;" xml:space="preserve">
<style type="text/css">
	.st0{fill:#131480;}
	.st1{fill:#FFFFFF;}
</style>
<path id="path4486_1_" class="st1" d="M57.3,18.7c-24.5,0-44.3,19.9-44.3,44.3c0,24.5,19.9,44.3,44.3,44.3
	c24.5,0,44.3-19.9,44.3-44.3C101.6,38.6,81.8,18.7,57.3,18.7z M57.3,101.7c-7,0-12.6-4.7-12.6-10.4h25.2
	C69.9,97.1,64.2,101.7,57.3,101.7z M78.1,87.9H36.4v-7.6h41.7V87.9L78.1,87.9z M78,76.5H36.5c-0.1-0.2-0.3-0.3-0.4-0.5
	c-4.3-5.2-5.3-7.9-6.2-10.6c0-0.1,5.2,1.1,8.9,1.9c0,0,1.9,0.4,4.7,0.9c-2.7-3.1-4.2-7.1-4.2-11.1c0-8.9,6.8-16.7,4.4-22.9
	c2.4,0.2,5,5.1,5.1,12.6c2.5-3.5,3.6-9.9,3.6-13.9c0-4.1,2.7-8.8,5.4-9c-2.4,3.9,0.6,7.3,3.3,15.7c1,3.2,0.9,8.5,1.7,11.8
	c0.3-7,1.5-17.2,5.9-20.7c-2,4.4,0.3,10,1.8,12.7c2.5,4.3,4,7.6,4,13.7c0,4.1-1.5,8-4.1,11.1c2.9-0.5,5-1,5-1l9.5-1.9
	C84.7,65.3,83.3,71,78,76.5z"/>
</svg>
