<?xml version="1.0" encoding="utf-8"?>
<!-- Generator: Adobe Illustrator 23.0.1, SVG Export Plug-In . SVG Version: 6.00 Build 0)  -->
<svg version="1.1" id="Vrstva_1" xmlns="http://www.w3.org/2000/svg" xmlns:xlink="http://www.w3.org/1999/xlink" x="0px" y="0px"
	 viewBox="0 0 114.5 126.2" style="enable-background:new 0 0 114.5 126.2;" xml:space="preserve">
<style type="text/css">
	.st0{fill:#131480;}
	.st1{fill:#FFFFFF;}
</style>
<path class="st1" d="M102.9,51l-1-5.9c-0.3-1.9-1.1-3.5-1.6-3.5c-0.6,0-1.1,1.6-1.1,3.5v1.6c0,1.9-1.6,3.5-3.5,3.5h-1.9v4.3h6.2
	C101.9,54.5,103.3,52.9,102.9,51 M88.9,46H69.4c-0.1,0-0.2,0-0.3,0v-0.9c0-1.9-0.5-3.5-1.1-3.5c-0.6,0-1.3,1.6-1.6,3.5l-1,5.9
	c-0.3,1.9,1,3.5,2.9,3.5h5.9c0.6,0,1.2-0.1,1.6-0.3c-0.2,1-1.1,1.7-2.1,1.7h-8.2c-1.3,0-2.3-1.2-2.1-2.5l0.8-5
	c0.2-1.3-0.8-2.5-2.1-2.5H21.3c-0.9,0-1.6,0.5-2,1.3L11.6,59c-0.1,0.2-0.1,0.5,0,0.6l1.5,1.8c0.2,0.2,0.5,0.3,0.7,0.1c0,0,0,0,0,0
	l5.2-4.1v25.1c0,1.2,1,2.1,2.1,2.1c0,0,0,0,0,0h11.6c1.2,0,2.1-1,2.1-2.1c0,0,0,0,0,0v-8.7c0-1.2,1-2.1,2.1-2.1c0,0,0,0,0,0h28.9
	c1.2,0,2.1,1,2.1,2.1c0,0,0,0,0,0v8.7c0,1.2,1,2.1,2.1,2.1c0,0,0,0,0,0H82c1.2,0,2.1-1,2.1-2.1c0,0,0,0,0,0V73H78
	c-1.9,0-3.5-1.6-3.5-3.5v-6c0-1.1,0.5-2.1,1.4-2.8v7.2c0,1.9,1.6,3.5,3.5,3.5h9.5c1.9,0,3.5-1.6,3.5-3.5V49.5
	C92.4,47.6,90.8,46,88.9,46"/>
</svg>
