<?xml version="1.0" encoding="utf-8"?>
<!-- Generator: Adobe Illustrator 23.0.1, SVG Export Plug-In . SVG Version: 6.00 Build 0)  -->
<svg version="1.1" id="Vrstva_1" xmlns="http://www.w3.org/2000/svg" xmlns:xlink="http://www.w3.org/1999/xlink" x="0px" y="0px"
	 viewBox="0 0 114.5 126.2" style="enable-background:new 0 0 114.5 126.2;" xml:space="preserve">
<style type="text/css">
	.st0{fill:#131480;}
	.st1{fill:#FFFFFF;}
</style>
<g>
	<path class="st1" d="M99.5,63.1c0-5.6-7-10.9-17.7-14.2c2.5-10.9,1.4-19.6-3.5-22.4c-1.1-0.7-2.4-1-3.9-1v3.8c0.8,0,1.4,0.2,2,0.4
		c2.3,1.3,3.4,6.5,2.6,13c-0.2,1.6-0.5,3.3-0.9,5.1c-3.4-0.8-7.1-1.5-10.9-1.9c-2.3-3.2-4.7-6.1-7.2-8.6c5.6-5.2,10.9-8.1,14.5-8.1
		v-3.8l0,0c-4.7,0-10.9,3.4-17.2,9.2C51,28.9,44.8,25.6,40,25.6v3.8c3.6,0,8.8,2.8,14.5,8c-2.4,2.5-4.8,5.4-7.1,8.6
		c-3.9,0.4-7.6,1-10.9,1.9c-0.4-1.7-0.7-3.4-0.9-5c-0.8-6.6,0.2-11.7,2.5-13c0.5-0.3,1.2-0.4,2-0.4v-3.8l0,0c-1.4,0-2.8,0.3-3.9,1
		c-4.8,2.8-5.9,11.5-3.4,22.4C22,52.2,15.1,57.5,15.1,63.1c0,5.6,7,10.9,17.7,14.2c-2.5,10.9-1.4,19.6,3.5,22.4c1.1,0.7,2.4,1,3.9,1
		c4.7,0,10.9-3.4,17.2-9.2c6.3,5.8,12.5,9.2,17.2,9.2c1.4,0,2.8-0.3,3.9-1c4.8-2.8,5.9-11.5,3.4-22.4C92.5,74,99.5,68.7,99.5,63.1z
		 M77.1,51.6c-0.6,2.2-1.4,4.5-2.3,6.8c-0.7-1.4-1.4-2.8-2.3-4.1c-0.8-1.4-1.6-2.7-2.5-4C72.5,50.6,74.8,51.1,77.1,51.6z M69.2,69.9
		c-1.3,2.3-2.7,4.5-4.1,6.6c-2.6,0.2-5.2,0.3-7.8,0.3c-2.6,0-5.2-0.1-7.7-0.3c-1.4-2-2.8-4.2-4.2-6.5c-1.3-2.3-2.5-4.5-3.6-6.8
		c1.1-2.3,2.3-4.6,3.6-6.9c1.3-2.3,2.7-4.5,4.1-6.6c2.6-0.2,5.2-0.3,7.8-0.3c2.6,0,5.2,0.1,7.7,0.3c1.4,2,2.8,4.2,4.2,6.5
		c1.3,2.3,2.5,4.5,3.6,6.8C71.7,65.4,70.5,67.7,69.2,69.9z M74.7,67.7c0.9,2.3,1.7,4.6,2.4,6.8c-2.3,0.6-4.6,1-7.1,1.4
		c0.8-1.3,1.7-2.7,2.5-4.1C73.3,70.5,74,69.1,74.7,67.7z M57.3,86.1c-1.6-1.7-3.2-3.5-4.8-5.5c1.5,0.1,3.1,0.1,4.7,0.1
		c1.6,0,3.2,0,4.8-0.1C60.5,82.6,58.9,84.4,57.3,86.1z M44.5,75.9c-2.4-0.4-4.8-0.8-7.1-1.4c0.6-2.2,1.4-4.5,2.3-6.8
		c0.7,1.4,1.4,2.8,2.3,4.1C42.8,73.3,43.7,74.6,44.5,75.9z M57.2,40.1c1.6,1.7,3.2,3.5,4.8,5.5c-1.5-0.1-3.1-0.1-4.7-0.1
		c-1.6,0-3.2,0-4.8,0.1C54,43.6,55.6,41.8,57.2,40.1z M44.5,50.3c-0.8,1.3-1.7,2.7-2.5,4.1c-0.8,1.4-1.5,2.8-2.2,4.1
		c-0.9-2.3-1.7-4.6-2.4-6.8C39.6,51.1,42,50.6,44.5,50.3z M28.9,71.8c-6.1-2.6-10-6-10-8.7s3.9-6.1,10-8.7c1.5-0.6,3.1-1.2,4.8-1.7
		c1,3.4,2.3,6.9,3.9,10.5c-1.6,3.6-2.9,7.1-3.8,10.4C32,73,30.4,72.4,28.9,71.8z M38.2,96.4c-2.3-1.3-3.4-6.5-2.6-13
		c0.2-1.6,0.5-3.3,0.9-5.1c3.4,0.8,7.1,1.5,10.9,1.9c2.3,3.2,4.7,6.1,7.2,8.6C49,94,43.7,96.9,40.1,96.9
		C39.3,96.8,38.7,96.7,38.2,96.4z M79,83.3c0.8,6.6-0.2,11.7-2.5,13c-0.5,0.3-1.2,0.4-2,0.4c-3.6,0-8.8-2.8-14.5-8
		c2.4-2.5,4.8-5.4,7.1-8.6c3.9-0.4,7.6-1,10.9-1.9C78.5,80,78.8,81.7,79,83.3z M85.6,71.8c-1.5,0.6-3.1,1.2-4.8,1.7
		c-1-3.4-2.3-6.9-3.9-10.5c1.6-3.6,2.9-7.1,3.8-10.4c1.7,0.5,3.3,1.1,4.8,1.8c6.1,2.6,10,6,10,8.7C95.6,65.8,91.7,69.2,85.6,71.8z"
		/>
	<circle class="st1" cx="57.2" cy="63.1" r="7.9"/>
</g>
</svg>
