<?xml version="1.0" encoding="utf-8"?>
<!-- Generator: Adobe Illustrator 23.0.1, SVG Export Plug-In . SVG Version: 6.00 Build 0)  -->
<svg version="1.1" id="Vrstva_1" xmlns="http://www.w3.org/2000/svg" xmlns:xlink="http://www.w3.org/1999/xlink" x="0px" y="0px"
	 viewBox="0 0 114.5 126.2" style="enable-background:new 0 0 114.5 126.2;" xml:space="preserve">
<style type="text/css">
	.st0{fill:#FFFFFF;}
</style>
<g>
	<path class="st0" d="M114.5,63.1c0-7.6-9.5-14.8-24-19.3c3.4-14.8,1.9-26.6-4.7-30.4c-1.5-0.9-3.3-1.4-5.3-1.4v5.2
		c1.1,0,1.9,0.3,2.7,0.5c3.1,1.8,4.6,8.8,3.5,17.6c-0.3,2.2-0.7,4.5-1.2,6.9c-4.6-1.1-9.6-2-14.8-2.6c-3.1-4.3-6.4-8.3-9.8-11.7
		c7.6-7.1,14.8-11,19.7-11v-5.2l0,0c-6.4,0-14.8,4.6-23.3,12.5c-8.5-7.7-17-12.2-23.5-12.2v5.2c4.9,0,11.9,3.8,19.7,10.9
		c-3.3,3.4-6.5,7.3-9.6,11.7c-5.3,0.5-10.3,1.4-14.8,2.6c-0.5-2.3-0.9-4.6-1.2-6.8c-1.1-9,0.3-15.9,3.4-17.6
		c0.7-0.4,1.6-0.5,2.7-0.5v-5.2l0,0c-1.9,0-3.8,0.4-5.3,1.4c-6.5,3.8-8,15.6-4.6,30.4C9.4,48.3,0,55.5,0,63.1s9.5,14.8,24,19.3
		c-3.4,14.8-1.9,26.6,4.7,30.4c1.5,0.9,3.3,1.4,5.3,1.4c6.4,0,14.8-4.6,23.3-12.5c8.5,7.9,17,12.5,23.3,12.5c1.9,0,3.8-0.4,5.3-1.4
		c6.5-3.8,8-15.6,4.6-30.4C105,77.9,114.5,70.7,114.5,63.1z M84.1,47.5c-0.8,3-1.9,6.1-3.1,9.2c-0.9-1.9-1.9-3.8-3.1-5.6
		c-1.1-1.9-2.2-3.7-3.4-5.4C77.9,46.1,81,46.8,84.1,47.5z M73.4,72.3c-1.8,3.1-3.7,6.1-5.6,9c-3.5,0.3-7.1,0.4-10.6,0.4
		c-3.5,0-7.1-0.1-10.4-0.4c-1.9-2.7-3.8-5.7-5.7-8.8c-1.8-3.1-3.4-6.1-4.9-9.2c1.5-3.1,3.1-6.2,4.9-9.4c1.8-3.1,3.7-6.1,5.6-9
		c3.5-0.3,7.1-0.4,10.6-0.4c3.5,0,7.1,0.1,10.4,0.4c1.9,2.7,3.8,5.7,5.7,8.8c1.8,3.1,3.4,6.1,4.9,9.2C76.8,66.2,75.2,69.3,73.4,72.3
		z M80.9,69.3c1.2,3.1,2.3,6.2,3.3,9.2c-3.1,0.8-6.2,1.4-9.6,1.9c1.1-1.8,2.3-3.7,3.4-5.6C79,73.1,79.9,71.2,80.9,69.3z M57.3,94.3
		c-2.2-2.3-4.3-4.7-6.5-7.5c2,0.1,4.2,0.1,6.4,0.1c2.2,0,4.3,0,6.5-0.1C61.6,89.5,59.4,92,57.3,94.3z M39.9,80.4
		c-3.3-0.5-6.5-1.1-9.6-1.9c0.8-3,1.9-6.1,3.1-9.2c0.9,1.9,1.9,3.8,3.1,5.6C37.6,76.9,38.8,78.7,39.9,80.4z M57.1,31.9
		c2.2,2.3,4.3,4.7,6.5,7.5c-2-0.1-4.2-0.1-6.4-0.1s-4.3,0-6.5,0.1C52.8,36.6,54.9,34.2,57.1,31.9z M39.9,45.7
		c-1.1,1.8-2.3,3.7-3.4,5.6c-1.1,1.9-2,3.8-3,5.6c-1.2-3.1-2.3-6.2-3.3-9.2C33.2,46.8,36.5,46.1,39.9,45.7z M18.7,74.9
		c-8.3-3.5-13.6-8.1-13.6-11.8c0-3.7,5.3-8.3,13.6-11.8c2-0.8,4.2-1.6,6.5-2.3c1.4,4.6,3.1,9.4,5.3,14.2c-2.2,4.9-3.9,9.6-5.2,14.1
		C22.9,76.5,20.8,75.7,18.7,74.9z M31.3,108.2c-3.1-1.8-4.6-8.8-3.5-17.6c0.3-2.2,0.7-4.5,1.2-6.9c4.6,1.1,9.6,2,14.8,2.6
		c3.1,4.3,6.4,8.3,9.8,11.7c-7.6,7.1-14.8,11-19.7,11C32.8,108.8,32,108.7,31.3,108.2z M86.7,90.5c1.1,9-0.3,15.9-3.4,17.6
		c-0.7,0.4-1.6,0.5-2.7,0.5c-4.9,0-11.9-3.8-19.7-10.9c3.3-3.4,6.5-7.3,9.6-11.7c5.3-0.5,10.3-1.4,14.8-2.6
		C86,86,86.4,88.3,86.7,90.5z M95.6,74.9c-2,0.8-4.2,1.6-6.5,2.3c-1.4-4.6-3.1-9.4-5.3-14.2c2.2-4.9,3.9-9.6,5.2-14.1
		c2.3,0.7,4.5,1.5,6.5,2.4c8.3,3.5,13.6,8.1,13.6,11.8C109.2,66.7,103.9,71.3,95.6,74.9z"/>
	<circle class="st0" cx="57.1" cy="63.1" r="10.7"/>
</g>
</svg>
