<svg xmlns="http://www.w3.org/2000/svg" xmlns:xlink="http://www.w3.org/1999/xlink" width="293" height="293.896" viewBox="0 0 293 293.896"><defs><style>.a{fill:url(#a);}.b{fill:#bc0044;}.c{fill:#ff0154;}.d{fill:url(#b);}.e{fill:#22447c;opacity:0.3;isolation:isolate;}</style><radialGradient id="a" cx="-35.959" cy="0.124" r="1.575" gradientTransform="translate(-1.555 5.357) rotate(180) scale(0.858 1)" gradientUnits="objectBoundingBox"><stop offset="0" stop-color="#f88b93"/><stop offset="0.206" stop-color="#d76d8e"/><stop offset="0.573" stop-color="#a23d87"/><stop offset="0.849" stop-color="#811f82"/><stop offset="1" stop-color="#751480"/></radialGradient><linearGradient id="b" x1="0.071" y1="0.798" x2="0.674" y2="0.108" gradientUnits="objectBoundingBox"><stop offset="0" stop-color="#ff0154"/><stop offset="1" stop-color="#172b6f"/></linearGradient></defs><path class="a" d="M118.5,174.032,321.351,0,136.177,127.291Z" transform="translate(-28.352)"/><path class="b" d="M118.5,174.032,321.351,0,136.177,127.291Z" transform="translate(-28.352)"/><path class="c" d="M293,0,72.482,106.93,0,65.055Z"/><path class="c" d="M326.909,0,141.735,127.291l72.352,41.875Z" transform="translate(-33.909)"/><path class="d" d="M130.62,127.291,315.794,0,95.276,106.93l17.672,67.1Z" transform="translate(-22.794)"/><path class="e" d="M260.781,235.328l-199,44.18,47,27.149h0l2.177,1.28,26.251-1.921,12.678,24.459L184.2,350.2Z" transform="translate(-14.78 -56.301)"/></svg>