<svg xmlns="http://www.w3.org/2000/svg" width="25.221" height="25.221" viewBox="0 0 25.221 25.221"><defs><style>.a{fill:#ff0154;}</style></defs><path class="a" d="M5.3,47.938a2.649,2.649,0,1,1-2.649-2.649H5.3Zm1.335,0a2.649,2.649,0,0,1,5.3,0v6.634a2.649,2.649,0,1,1-5.3,0V47.938ZM9.283,37.3a2.649,2.649,0,1,1,2.649-2.649V37.3H9.283Zm0,1.335a2.649,2.649,0,1,1,0,5.3H2.649a2.649,2.649,0,1,1,0-5.3H9.283Zm10.639,2.649a2.649,2.649,0,1,1,2.649,2.649H19.922V41.283Zm-1.335,0a2.649,2.649,0,0,1-5.3,0V34.649a2.649,2.649,0,1,1,5.3,0v6.634ZM15.938,51.922a2.649,2.649,0,1,1-2.649,2.649V51.922Zm0-1.335a2.649,2.649,0,0,1,0-5.3h6.634a2.649,2.649,0,0,1,0,5.3Z" transform="translate(0 -32)"/></svg>