<svg xmlns="http://www.w3.org/2000/svg" width="352" height="352" viewBox="0 0 352 352">
  <path id="times-solid" d="M242.72,256,342.79,155.93a31.457,31.457,0,0,0,0-44.48L320.55,89.21a31.457,31.457,0,0,0-44.48,0L176,189.28,75.93,89.21a31.457,31.457,0,0,0-44.48,0L9.21,111.45a31.457,31.457,0,0,0,0,44.48L109.28,256,9.21,356.07a31.457,31.457,0,0,0,0,44.48l22.24,22.24a31.457,31.457,0,0,0,44.48,0L176,322.72,276.07,422.79a31.457,31.457,0,0,0,44.48,0l22.24-22.24a31.457,31.457,0,0,0,0-44.48Z" transform="translate(0 -80)" fill="#ff0154"/>
</svg>
