<svg xmlns="http://www.w3.org/2000/svg" width="146.835" height="315.173" viewBox="0 0 146.835 315.173">
  <g id="Group_22" data-name="Group 22" transform="translate(-549.686 -5949.388)">
    <g id="Group_21" data-name="Group 21" transform="translate(549.686 5949.388)">
      <path id="Path_31" data-name="Path 31" d="M791.8,6960.575c1.655,1.45,3.08,2.694,4.5,3.944.662.583,1.323,1.167,1.976,1.757,2.043,1.848,4.076,3.709,6.128,5.552q3.471,3.119,6.96,6.215,2.467,2.194,4.939,4.382,3.741,3.3,7.482,6.606a.694.694,0,0,1,.252.471c-.082,1.173-.189,2.344-.312,3.512-.14,1.3-.319,2.6-.458,3.9q-.326,3.059-.618,6.123c-.125,1.338-.213,2.68-.323,4.019-.1,1.229-.186,2.46-.343,3.684-.02.172-.417.441-.624.428-1.667-.114-3.326-.286-4.99-.431-.793-.068-1.589-.12-2.384-.166-1.813-.105-3.626-.18-5.437-.31-2.569-.185-5.143-.349-7.7-.66-.562-.069-1.09-.667-1.57-1.094-2.572-2.29-5.115-4.608-7.681-6.908-2.214-1.981-4.441-3.948-6.664-5.922q-3.359-2.988-6.722-5.978t-6.727-5.978c-.843-.747-1.709-1.463-2.614-2.237l-24.792,22.375c.532-7.429,1.051-14.648,1.575-21.955-6.916-.693-13.777-1.378-20.849-2.085,7.018-6.394,13.88-12.646,20.841-18.982-1.008-.935-1.957-1.841-2.934-2.713-.734-.66-1.522-1.26-2.257-1.917-2.012-1.8-4-3.628-6.01-5.432-2.212-1.982-4.443-3.947-6.664-5.922q-3.421-3.047-6.843-6.094-3.271-2.908-6.544-5.807c-.116-.1-.214-.228-.463-.5,1.936.092,3.682.172,5.426.258.164.008.324.061.486.067,1.906.047,3.815.071,5.719.137,2.287.079,4.572.183,6.855.292.9.045,1.791.134,2.733.209.523-7.333,1.036-14.519,1.562-21.869.593.472,1.076.81,1.511,1.2,2.069,1.863,4.119,3.745,6.188,5.6q3.441,3.094,6.9,6.159,3.419,3.048,6.842,6.1c2.3,2.05,4.6,4.109,6.9,6.153,1.169,1.036,2.359,2.051,3.593,3.118,1.3-1.182,2.594-2.349,3.881-3.521q9.793-8.917,19.6-17.82a1.842,1.842,0,0,1,1.228-.42c6.706.395,13.41.83,20.114,1.255.58.037,1.16.091,1.843.144-.127,1.736-.248,3.444-.382,5.15-.393,5.008-.815,10.016-1.175,15.027a3.063,3.063,0,0,1-1.077,2.278c-6.646,5.939-13.25,11.924-19.873,17.891A10.337,10.337,0,0,1,791.8,6960.575Z" transform="translate(-695.388 -6802.928)" fill="#c8bfb0" fill-rule="evenodd"/>
      <path id="Path_32" data-name="Path 32" d="M808.762,8326.217c-.157,2.564-.3,4.889-.435,7.212-.016.249,0,.5-.01.749-.093,2.675-.18,5.35-.289,8.021-.081,1.979-.188,3.959-.3,5.938-.023.4-.1.793-.159,1.234,1.647.119,3.232.238,4.817.35q4.31.3,8.625.606c.959.064,1.921.106,2.883.155l4.045.2a18.9,18.9,0,0,1-1.757,1.762c-2.965,2.268-5.884,4.606-8.967,6.7a69.1,69.1,0,0,1-11.12,6,75.836,75.836,0,0,1-13.719,4.588c-2.41.547-4.864.9-7.3,1.323a68.123,68.123,0,0,1-13.447.72,61.658,61.658,0,0,1-10.333-1.16,55.314,55.314,0,0,1-11.647-3.566,72.371,72.371,0,0,1-9.032-4.729,65.94,65.94,0,0,1-8.189-5.951c-2.546-2.18-4.783-4.725-7.134-7.133a13.216,13.216,0,0,1-1.509-1.836,2.134,2.134,0,0,1-.4-1.249c.157-2.156.4-4.3.591-6.457.129-1.478.2-2.958.323-4.437.191-2.293.417-4.582.607-6.873.08-.988.117-1.979.159-2.969.021-.426-.007-.67.648-.569,1.432.225,2.9.236,4.345.366,2.07.19,4.136.42,6.2.611,1.395.128,2.793.2,4.187.327,2.1.189,4.19.391,6.281.63a1.2,1.2,0,0,1,.742.482,26.249,26.249,0,0,0,8.472,7.527,35.756,35.756,0,0,0,10.353,4.073,63.232,63.232,0,0,0,6.521,1.067,31.433,31.433,0,0,0,5.676.279,66.641,66.641,0,0,0,8.367-1.062,35.965,35.965,0,0,0,9.977-3.686,38.778,38.778,0,0,0,7.814-5.328c1.147-1.036,2.237-2.141,3.352-3.213C808.2,8326.742,808.393,8326.563,808.762,8326.217Z" transform="translate(-703.771 -8056.652)" fill="#c8bfb0" fill-rule="evenodd"/>
      <path id="Path_33" data-name="Path 33" d="M604.173,7553c-.038.857-.05,1.727-.119,2.592-.068.842-.221,1.679-.294,2.521q-.328,3.81-.619,7.623c-.124,1.673-.187,3.349-.314,5.021-.134,1.747-.3,3.491-.477,5.234a.934.934,0,0,1-.273.478,37.749,37.749,0,0,0-6.471,9.023,62.105,62.105,0,0,0-3.544,8.131,63.225,63.225,0,0,0-2.008,8.966,37.972,37.972,0,0,0-.615,7.031,45.328,45.328,0,0,0,3.552,16.688,48.167,48.167,0,0,0,5.159,9.532,2.078,2.078,0,0,1,.182.44c-7.316-.609-14.592-1.217-21.916-1.829-.57,7.135-1.134,14.2-1.7,21.264-.071.026-.146.054-.216.082-.606-.856-1.284-1.671-1.8-2.578-1.674-2.933-3.414-5.834-4.895-8.864a72.12,72.12,0,0,1-5.446-15.311c-.729-3.122-1.345-6.273-1.877-9.436a57.237,57.237,0,0,1-.557-5.809c-.169-2.558-.4-5.124-.357-7.684.063-3.348.3-6.7.589-10.038a57.8,57.8,0,0,1,3.038-13.484,73.881,73.881,0,0,1,6.877-14.674,66.57,66.57,0,0,1,6.724-9.446c1.867-2.139,3.8-4.223,5.731-6.3a2.059,2.059,0,0,1,2.347-.682,9.535,9.535,0,0,0,2.288.2c2.387.155,4.772.292,7.156.463,2.682.191,5.362.4,8.042.618C602.954,7552.813,603.546,7552.913,604.173,7553Z" transform="translate(-558.446 -7370.502)" fill="#c8bfb0" fill-rule="evenodd"/>
      <path id="Path_34" data-name="Path 34" d="M888.694,5974.164c-2.8-.155-5.395-.312-7.994-.434-3.828-.181-7.655-.325-11.48-.511-.679-.034-.905.193-.945.881-.349,6.095-.73,12.191-1.1,18.284-.054.888-.112,1.773-.174,2.771-.191-.157-.328-.252-.447-.371-6.537-6.557-14.118-11.417-23.293-13.12-11.437-2.125-22.287-.367-32,6.38a6.034,6.034,0,0,1-4.328,1.138c-5.308-.457-10.629-.788-15.944-1.167-.6-.043-1.208-.1-1.905-.161.132-2.085.254-4.129.389-6.17.334-5.041.663-10.083,1.032-15.12a2.209,2.209,0,0,1,.549-1.292,49.189,49.189,0,0,1,16.323-10.542,70.7,70.7,0,0,1,23.116-5.166,74.624,74.624,0,0,1,23.144,1.9,62.911,62.911,0,0,1,33.98,21.269C887.945,5973.139,888.247,5973.569,888.694,5974.164Z" transform="translate(-762.053 -5949.388)" fill="#c8bfb0" fill-rule="evenodd"/>
      <path id="Path_35" data-name="Path 35" d="M573.451,6132.011c-.447,7.3-.886,14.437-1.328,21.648l20.679,1.591c-.666.823-1.259,1.544-1.837,2.276a51.427,51.427,0,0,0-10.731,22.812,48.025,48.025,0,0,0,3.32,27.859c.981,2.314,2.295,4.488,3.438,6.734a2.054,2.054,0,0,1,.276,1q-.729,10.591-1.506,21.177c-.008.109-.029.218-.052.376-.889,0-1.763.047-2.634.011-5.629-.229-11.258-.5-16.888-.694a2.046,2.046,0,0,1-1.666-.876,63.459,63.459,0,0,1-9.375-16.419,76.614,76.614,0,0,1-5.391-25.688c-.75-19.606,4.514-37.419,16.156-53.246,2.146-2.917,4.744-5.5,7.136-8.231A4.253,4.253,0,0,1,573.451,6132.011Z" transform="translate(-549.686 -6111.394)" fill="#c8bfb0" fill-rule="evenodd"/>
      <path id="Path_36" data-name="Path 36" d="M1481.388,6306.012c.451-7.126.891-14.045,1.337-21.077-7.2-.567-14.349-1.129-21.624-1.7.848-.933,1.636-1.736,2.353-2.6a48.305,48.305,0,0,0,11.389-26.948,43.549,43.549,0,0,0-2.456-17.773,65.828,65.828,0,0,0-5.27-11.836,2.1,2.1,0,0,1-.251-1.1c.259-4.741.544-9.478.825-14.218.133-2.271.289-4.542.38-6.817.027-.63.225-.8.838-.759,6.264.365,12.529.7,18.79,1.076a1.456,1.456,0,0,1,.893.589,71.328,71.328,0,0,1,8.246,14.517,90.772,90.772,0,0,1,7.3,31.2c.914,15.818-3.264,30.252-11.64,43.573a75.822,75.822,0,0,1-10.382,13.2C1481.921,6305.52,1481.719,6305.7,1481.388,6306.012Z" transform="translate(-1358.206 -6172.748)" fill="#c8bfb0" fill-rule="evenodd"/>
      <path id="Path_37" data-name="Path 37" d="M1497.908,7732.573q.167-2.767.329-5.511c.063-1.044.139-2.086.186-3.13.058-1.406.084-2.814.146-4.219.14-3.136.281-6.273.459-9.407a1.767,1.767,0,0,1,.431-1.019c4.078-4.436,6.345-9.775,7.78-15.528a35.2,35.2,0,0,0,1.126-7.928c.04-2.352.24-4.711.087-7.052a52.244,52.244,0,0,0-2.111-12.213,36.109,36.109,0,0,0-4.8-10.209c-.628-.892-1.322-1.733-2.019-2.641a1.04,1.04,0,0,1,.324-.1c1.944.144,3.883.3,5.824.446.849.063,1.7.116,2.552.164,1.923.1,3.849.176,5.771.307,1.775.12,3.549.291,5.322.463,1.067.1,1.129,0,1.211-1.078.154-1.989.41-3.974.6-5.957.128-1.34.2-2.682.328-4.021.193-2.042.421-4.081.608-6.123.136-1.466.231-2.935.365-4.651a18.875,18.875,0,0,1,1.219,1.647c1.448,2.526,3.008,5,4.26,7.626a103.735,103.735,0,0,1,4.055,9.687c1.171,3.26,2.131,6.607,3,9.965.646,2.5,1.074,5.055,1.47,7.605.431,2.806.714,5.637,1.061,8.458a2.145,2.145,0,0,1,.008.25c.071,2.351.251,4.7.182,7.052-.087,3.017-.375,6.027-.58,9.042a53.492,53.492,0,0,1-1.965,11.161c-.936,3.252-2.038,6.469-3.279,9.616a47,47,0,0,1-5.719,10.437c-1.2,1.655-2.48,3.263-3.8,4.824-.885,1.045-1.969,1.92-2.859,2.96a1.968,1.968,0,0,1-1.89.52c-.954-.057-1.9-.229-2.853-.292-1.9-.125-3.792-.194-5.688-.31-2.36-.142-4.717-.29-7.072-.46C1500.682,7732.861,1499.4,7732.714,1497.908,7732.573Z" transform="translate(-1390.858 -7443.076)" fill="#c8bfb0" fill-rule="evenodd"/>
    </g>
  </g>
</svg>
