<?xml version="1.0" ?><svg height="60px" version="1.1" viewBox="0 0 60 60" width="60px" xmlns="http://www.w3.org/2000/svg" xmlns:sketch="http://www.bohemiancoding.com/sketch/ns" xmlns:xlink="http://www.w3.org/1999/xlink"><title/><desc/><defs/><g fill="none" fill-rule="evenodd" id="soical" stroke="none" stroke-width="1"><g id="social" transform="translate(-273.000000, -138.000000)"><g id="slices" transform="translate(173.000000, 138.000000)"/><g fill="#346DA6" id="hexagon-flat" transform="translate(173.000000, 138.000000)"><polygon id="Polygon-1" points="130 0 155.980762 15 155.980762 45 130 60 104.019238 45 104.019238 15 "/></g><g fill="#FFFFFF" id="icon" transform="translate(182.000000, 150.000000)"><path d="M116.462224,35.314313 L116.462224,17.9989613 L112.943289,17.9989612 L112.943289,12.2593563 L116.462224,12.2593563 L116.462224,8.78838641 C116.462224,4.10664222 117.861995,0.730618986 122.988102,0.730618986 L129.08636,0.730618986 L129.08636,6.45843996 L124.792255,6.45843996 C122.641894,6.45843996 122.151874,7.8873763 122.151874,9.38376095 L122.151874,12.2593553 L128.769423,12.2593558 L127.866173,17.9989613 L122.151874,17.9989613 L122.151874,35.3143123 L116.462224,35.314313 Z" id="facebook"/></g></g></g></svg>