<svg width="300" height="300" xmlns="http://www.w3.org/2000/svg">
 <title/>

 <g>
  <title>background</title>
  <rect fill="none" id="canvas_background" height="402" width="582" y="-1" x="-1"/>
 </g>
 <g>
  <title>Layer 1</title>
  <path fill="#0054a8" id="svg_1" d="m202.26,56.51l48,83.11l6.87,11.89l0,-3l-48,83.11l-6.87,11.89l2.59,-1.49l-109.7,0l2.59,1.49l-48,-83.11l-6.87,-11.89l0,3l48,-83.11l6.87,-11.89l-2.59,1.49l109.7,0c3.86,0 3.87,-6 0,-6l-97.31,0c-3.9,0 -8.47,-0.66 -12.34,0c-3.29,0.57 -4.93,5.45 -6.43,8.05l-28.1,48.68l-23,39.76a3,3 0 0 0 0,3l35.54,61.56l17.72,30.65c1.16,2 1.8,3.86 4.32,4.3s5.68,0 8.3,0l98.74,0c2.3,0 3.78,0.16 5.36,-1.85c1.82,-2.32 3.1,-5.37 4.57,-7.91l9.44,-16.35l40.63,-70.37a3,3 0 0 0 0,-3l-48,-83.11l-6.87,-11.89c-1.91,-3.38 -7.1,-0.36 -5.16,2.99z"/>
  <path fill="#0054a8" id="svg_2" d="m193.6,71.51l40.32,69.84l5.87,10.16l0,-3l-40.32,69.84l-5.87,10.16l2.59,-1.49l-92.38,0l2.59,1.49l-40.32,-69.86l-5.87,-10.16l0,3l40.32,-69.84l5.87,-10.16l-2.59,1.51l92.38,0c3.86,0 3.87,-6 0,-6l-82,0c-3.28,0 -7.1,-0.55 -10.35,0c-3,0.51 -4.34,4.45 -5.73,6.86l-23.71,41.08l-19.4,33.55a3,3 0 0 0 0,3l29.77,51.51l15.14,26.22c1.07,1.85 1.61,3.32 4,3.76c2.08,0.38 4.59,0 6.69,0l72.4,0c3.9,0 13,1.8 15.85,-1.68c1.54,-1.91 2.61,-4.52 3.83,-6.64l7.93,-13.66l34.39,-59.49a3,3 0 0 0 0,-3l-40.35,-69.86l-5.87,-10.16c-1.93,-3.35 -7.12,-0.33 -5.18,3.02z"/>
 </g>
</svg>