<?xml version="1.0" ?>
<svg data-name="Layer 1" id="Layer_1" viewBox="0 0 300 300" xmlns="http://www.w3.org/2000/svg">
<title/>
<path d="M202.26,56.51l48,83.11,6.87,11.89v-3l-48,83.11-6.87,11.89,2.59-1.49H95.15l2.59,1.49-48-83.11-6.87-11.89v3l48-83.11,6.87-11.89L95.15,58h109.7c3.86,0,3.87-6,0-6H107.54c-3.9,0-8.47-.66-12.34,0-3.29.57-4.93,5.45-6.43,8.05l-28.1,48.68-23,39.76a3,3,0,0,0,0,3l35.54,61.56L90.93,243.7c1.16,2,1.8,3.86,4.32,4.3s5.68,0,8.3,0h98.74c2.3,0,3.78.16,5.36-1.85,1.82-2.32,3.1-5.37,4.57-7.91l9.44-16.35,40.63-70.37a3,3,0,0,0,0-3l-48-83.11-6.87-11.89C205.51,50.14,200.32,53.16,202.26,56.51Z"/>
<path d="M193.6,71.51l40.32,69.84,5.87,10.16v-3l-40.32,69.84-5.87,10.16,2.59-1.49H103.81l2.59,1.49L66.08,158.65l-5.87-10.16v3l40.32-69.84,5.87-10.16L103.81,73h92.38c3.86,0,3.87-6,0-6h-82c-3.28,0-7.1-.55-10.35,0-3,.51-4.34,4.45-5.73,6.86L74.4,114.94,55,148.49a3,3,0,0,0,0,3L84.77,203l15.14,26.22c1.07,1.85,1.61,3.32,4,3.76,2.08.38,4.59,0,6.69,0H183c3.9,0,13,1.8,15.85-1.68,1.54-1.91,2.61-4.52,3.83-6.64L210.61,211,245,151.51a3,3,0,0,0,0-3L204.65,78.65l-5.87-10.16C196.85,65.14,191.66,68.16,193.6,71.51Z"/>
</svg>
