<?xml version="1.0" standalone="no"?>
<!DOCTYPE svg PUBLIC "-//W3C//DTD SVG 20010904//EN"
 "http://www.w3.org/TR/2001/REC-SVG-20010904/DTD/svg10.dtd">
<svg version="1.0" xmlns="http://www.w3.org/2000/svg"
 width="432.000000pt" height="432.000000pt" viewBox="0 0 432.000000 432.000000"
 preserveAspectRatio="xMidYMid meet">
<metadata>
Created by potrace 1.15, written by Peter Selinger 2001-2017
</metadata>
<g transform="translate(0.000000,432.000000) scale(0.100000,-0.100000)"
fill="#ffffff" stroke="none">
<path d="M1940 4049 c-642 -72 -1197 -460 -1485 -1037 -199 -397 -248 -877
-135 -1316 189 -734 808 -1286 1559 -1390 143 -20 389 -20 532 0 528 73 1008
374 1304 819 455 682 414 1596 -102 2235 -399 494 -1044 760 -1673 689z m320
-766 c24 -23 105 -210 411 -947 218 -524 384 -937 386 -960 10 -103 -108 -178
-203 -127 -21 11 -257 197 -524 414 l-485 393 -161 -400 -160 -401 -148 -3
c-117 -2 -147 0 -143 10 2 7 190 458 416 1003 331 796 417 995 441 1018 25 22
39 27 85 27 46 0 60 -5 85 -27z"/>
<path d="M2056 2584 c-81 -200 -115 -299 -108 -306 23 -23 687 -545 691 -542
4 3 -449 1125 -459 1137 -3 4 -59 -126 -124 -289z"/>
</g>
</svg>
